<svg width="12" height="16" viewBox="0 0 12 16" fill="none" xmlns="http://www.w3.org/2000/svg">
<g clip-path="url(#clip0)">
<path d="M5.51852 0.111328C7.04938 0.111328 8.35802 0.648365 9.44444 1.72244C10.5309 2.79651 11.0741 4.09898 11.0741 5.62985C11.0741 6.39528 10.8827 7.27799 10.5 8.278C10.1173 9.278 9.65432 10.2039 9.11111 11.0558C8.5679 11.9076 8.02469 12.7101 7.48148 13.4632C6.93827 14.2163 6.48148 14.815 6.11111 15.2595L5.51852 15.8891C5.37037 15.741 5.17284 15.5187 4.92593 15.2224C4.67901 14.9261 4.24074 14.3521 3.61111 13.5002C2.98148 12.6484 2.41975 11.8212 1.92593 11.0187C1.4321 10.2163 0.987654 9.30886 0.592593 8.29651C0.197531 7.28417 0 6.39528 0 5.62985C0 4.09898 0.537037 2.79651 1.61111 1.72244C2.68519 0.648365 3.98765 0.111328 5.51852 0.111328ZM5.51852 7.59281C6.06173 7.59281 6.53086 7.40145 6.92593 7.01874C7.32099 6.63602 7.51852 6.17306 7.51852 5.62985C7.51852 5.08664 7.32099 4.62367 6.92593 4.24096C6.53086 3.85824 6.06173 3.66688 5.51852 3.66688C4.97531 3.66688 4.51235 3.85824 4.12963 4.24096C3.74691 4.62367 3.55556 5.08664 3.55556 5.62985C3.55556 6.17306 3.74691 6.63602 4.12963 7.01874C4.51235 7.40145 4.97531 7.59281 5.51852 7.59281Z" fill="#98368F"/>
</g>
<defs>
<clipPath id="clip0">
<rect width="11.2593" height="16" fill="white"/>
</clipPath>
</defs>
</svg>
