<svg width="30" height="30" viewBox="0 0 30 30" fill="none" xmlns="http://www.w3.org/2000/svg">
<path d="M25.821 12.1475C25.6948 11.8944 25.3874 11.7915 25.1344 11.9177C24.8813 12.0438 24.7784 12.3512 24.9045 12.6043C25.5422 13.8835 25.8655 15.3447 25.8655 16.9474C25.8655 19.2149 24.8239 22.2165 23.1472 24.7809C21.4293 27.4081 19.4319 28.9766 17.8043 28.9766C17.1261 28.9766 16.3985 28.8696 15.7554 28.6754C14.7522 28.3723 13.6915 28.3723 12.6883 28.6754C12.0451 28.8697 11.3175 28.9766 10.6393 28.9766C9.01164 28.9766 7.0143 27.4081 5.29639 24.7809C3.61962 22.2165 2.57806 19.2149 2.57806 16.9474C2.57806 14.8052 3.17073 12.8796 4.29192 11.379C5.23522 10.1165 6.55018 9.19177 7.89941 8.8419C8.90752 8.58052 10.2368 8.64989 11.7438 9.04224C11.9085 9.08513 12.077 9.12438 12.2445 9.15878C12.5214 9.21556 12.7921 9.03726 12.8491 8.76028C12.906 8.48331 12.7275 8.21267 12.4506 8.15571C12.3004 8.12483 12.1495 8.0898 12.0019 8.05136C10.3025 7.60886 8.8358 7.54142 7.64242 7.85073C6.04879 8.26388 4.5676 9.29929 3.47155 10.7661C2.21712 12.4451 1.55402 14.5825 1.55402 16.9474C1.55402 19.4031 2.65956 22.6195 4.43934 25.3413C6.37551 28.3023 8.63529 30.0006 10.6393 30.0006C11.4262 30.0006 12.2371 29.8813 12.9842 29.6557C13.7937 29.4111 14.6496 29.4111 15.4592 29.6557C16.2064 29.8814 17.0172 30.0006 17.8041 30.0006C19.8081 30.0006 22.0679 28.3023 24.004 25.3413C25.7837 22.6194 26.8894 19.4031 26.8894 16.9474C26.8895 15.1848 26.53 13.5698 25.821 12.1475Z"  />
<path d="M24.7522 10.4841C23.6832 9.16942 22.28 8.23421 20.8012 7.85078C19.6079 7.5414 18.1411 7.60884 16.4416 8.0514C16.0735 8.14732 15.6954 8.21997 15.318 8.26738C15.0374 8.30259 14.8386 8.55859 14.8738 8.83919C14.909 9.11974 15.1654 9.31884 15.4456 9.28339C15.867 9.23048 16.2889 9.14939 16.6998 9.04234C18.207 8.64993 19.5363 8.58073 20.5442 8.842C21.8132 9.17106 23.0255 9.98364 23.9576 11.1301C24.0588 11.2545 24.2064 11.3191 24.3552 11.3191C24.4687 11.3191 24.5829 11.2815 24.6779 11.2044C24.8973 11.026 24.9305 10.7035 24.7522 10.4841Z"  />
<path d="M28.2095 0.384978C28.0404 0.276814 27.8236 0.277517 27.655 0.386736C26.9198 0.86357 26.0938 0.688669 24.8434 0.424001C24.7347 0.400974 24.624 0.377595 24.511 0.354099C24.2342 0.296619 23.9631 0.47445 23.9056 0.751364C23.8482 1.02828 24.026 1.29927 24.3029 1.35675C24.4145 1.3799 24.524 1.4031 24.6313 1.42583C25.5706 1.6247 26.4201 1.80453 27.2204 1.6482C26.8354 3.02392 25.8231 5.57637 23.4715 6.48252C21.4829 7.24875 19.6142 6.17449 18.1127 5.31135C17.5103 4.96506 16.9781 4.65915 16.5051 4.52614C17.0379 3.3954 18.3595 1.23429 20.7362 1.05377C21.4278 1.00121 22.1155 1.01826 22.8386 1.10574C23.1196 1.13949 23.3745 0.939625 23.4085 0.658962C23.4425 0.37824 23.2424 0.123123 22.9617 0.0891388C22.1713 -0.00648596 21.4179 -0.0249429 20.6587 0.0326546C19.0338 0.156053 17.5799 1.04322 16.4542 2.59806C15.7333 3.59374 15.3666 4.55673 15.2734 4.82139L13.9258 6.86795C13.5465 5.72092 13.1703 5.00198 13.14 4.94503C13.0074 4.6953 12.6974 4.60038 12.4477 4.73298C12.198 4.86557 12.1031 5.17553 12.2357 5.42526C12.2484 5.44911 13.4294 7.70478 13.6678 10.6605C13.2753 10.6165 12.9146 10.5264 12.6335 10.3991C12.2942 10.2454 12.1888 10.0895 12.1888 10.0501C12.1888 9.76734 11.9596 9.53812 11.6768 9.53812C11.3941 9.53812 11.1649 9.76734 11.1649 10.0501C11.1649 10.3518 11.3008 10.9195 12.211 11.3318C12.7566 11.579 13.4707 11.7151 14.2218 11.7151C14.9732 11.7151 15.6875 11.579 16.2332 11.3318C17.1435 10.9195 17.2795 10.3518 17.2795 10.0502C17.2795 9.7674 17.0502 9.53818 16.7675 9.53818C16.4847 9.53818 16.2555 9.7674 16.2555 10.0502C16.2555 10.0895 16.1501 10.2454 15.8107 10.3991C15.5105 10.5351 15.119 10.6284 14.6952 10.6687C14.6281 9.75884 14.4789 8.91304 14.2973 8.16562L16.0647 5.48168C16.125 5.4842 16.234 5.50307 16.4177 5.57561C16.7404 5.70328 17.1399 5.93291 17.6025 6.19881C18.8035 6.88916 20.337 7.771 22.0602 7.77082C22.6341 7.77082 23.2293 7.67291 23.8398 7.43766C27.6712 5.96127 28.4108 1.09513 28.4405 0.888707C28.469 0.690251 28.3787 0.493083 28.2095 0.384978Z"  />
</svg>
