<svg width="48" height="48" viewBox="0 0 48 48" fill="none" xmlns="http://www.w3.org/2000/svg">
<path d="M15.0166 9.14759V8.64759H14.6256L14.5313 9.02701L15.0166 9.14759ZM25.9876 6.00015L26.0407 5.50297L26.0128 5.5L25.9848 5.50016L25.9876 6.00015ZM29.2418 8.59216L28.7604 8.72753L28.7619 8.73272L29.2418 8.59216ZM41.7934 22.2928L41.8276 21.794L41.8118 21.7929L41.7959 21.7928L41.7934 22.2928ZM44.5826 24.8848L45.0823 24.8663V24.8654L44.5826 24.8848ZM3.67353 20.2563L3.17662 20.2008L3.17353 20.2284V20.2563H3.67353ZM15.2025 18.4974L15.2313 17.9981L15.2196 17.9974L15.2079 17.9974L15.2025 18.4974ZM25.4298 24.6996L25.8486 24.4265L25.8483 24.4261L25.4298 24.6996ZM15.2602 32.7534C15.2602 33.6 14.5704 34.2899 13.7148 34.2899V35.2899C15.1185 35.2899 16.2602 34.1564 16.2602 32.7534H15.2602ZM13.7148 34.2899C12.8592 34.2899 12.1693 33.6 12.1693 32.7534H11.1693C11.1693 34.1564 12.311 35.2899 13.7148 35.2899V34.2899ZM12.1693 32.7534C12.1693 31.9068 12.8592 31.2168 13.7148 31.2168V30.2168C12.311 30.2168 11.1693 31.3505 11.1693 32.7534H12.1693ZM13.7148 31.2168C14.5704 31.2168 15.2602 31.9068 15.2602 32.7534H16.2602C16.2602 31.3505 15.1185 30.2168 13.7148 30.2168V31.2168ZM19.9091 32.7534C19.9091 36.1563 17.1379 38.9185 13.7149 38.9185V39.9185C17.6861 39.9185 20.9091 36.7127 20.9091 32.7534H19.9091ZM13.7149 38.9185C10.2919 38.9185 7.52068 36.1563 7.52068 32.7534H6.52068C6.52068 36.7127 9.7437 39.9185 13.7149 39.9185V38.9185ZM7.52068 32.7534C7.52068 29.3505 10.2919 26.5883 13.7149 26.5883V25.5883C9.7437 25.5883 6.52068 28.7942 6.52068 32.7534H7.52068ZM13.7149 26.5883C17.1379 26.5883 19.9091 29.3505 19.9091 32.7534H20.9091C20.9091 28.7942 17.6861 25.5883 13.7149 25.5883V26.5883ZM24.9298 32.7534C24.9298 38.9171 19.9108 43.9174 13.7149 43.9174V44.9174C20.4589 44.9174 25.9298 39.4734 25.9298 32.7534H24.9298ZM13.7149 43.9174C7.51903 43.9174 2.5 38.9171 2.5 32.7534H1.5C1.5 39.4734 6.97085 44.9174 13.7149 44.9174V43.9174ZM2.5 32.7534C2.5 26.5898 7.51903 21.5893 13.7149 21.5893V20.5893C6.97085 20.5893 1.5 26.0334 1.5 32.7534H2.5ZM13.7149 21.5893C19.9108 21.5893 24.9298 26.5898 24.9298 32.7534H25.9298C25.9298 26.0334 20.4589 20.5893 13.7149 20.5893V21.5893ZM35.1572 6.46301V22.2003H36.1572V6.46301H35.1572ZM37.6673 22.2928V26.366H38.6673V22.2928H37.6673ZM40.4567 22.2928V26.366H41.4567V22.2928H40.4567ZM40.6426 39.2334C40.6426 39.8754 40.1192 40.3997 39.469 40.3997V41.3997C40.6674 41.3997 41.6426 40.4318 41.6426 39.2334H40.6426ZM39.469 40.3997C38.8188 40.3997 38.2955 39.8754 38.2955 39.2334H37.2955C37.2955 40.4318 38.2707 41.3997 39.469 41.3997V40.3997ZM38.2955 39.2334C38.2955 38.5913 38.8188 38.0672 39.469 38.0672V37.0672C38.2707 37.0672 37.2955 38.0349 37.2955 39.2334H38.2955ZM39.469 38.0672C40.1192 38.0672 40.6426 38.5913 40.6426 39.2334H41.6426C41.6426 38.0349 40.6674 37.0672 39.469 37.0672V38.0672ZM44.6406 39.2334C44.6406 42.0739 42.3273 44.3802 39.4691 44.3802V45.3802C42.8754 45.3802 45.6406 42.6302 45.6406 39.2334H44.6406ZM39.4691 44.3802C36.6109 44.3802 34.2976 42.0739 34.2976 39.2334H33.2976C33.2976 42.6302 36.0627 45.3802 39.4691 45.3802V44.3802ZM34.2976 39.2334C34.2976 36.3929 36.6109 34.0865 39.4691 34.0865V33.0865C36.0627 33.0865 33.2976 35.8365 33.2976 39.2334H34.2976ZM39.4691 34.0865C42.3273 34.0865 44.6406 36.3929 44.6406 39.2334H45.6406C45.6406 35.8365 42.8754 33.0865 39.4691 33.0865V34.0865ZM13.2704 18.2477L15.5018 9.26817L14.5313 9.02701L12.2999 18.0065L13.2704 18.2477ZM15.0166 9.64759H29.2418V8.64759H15.0166V9.64759ZM9.34782 6.59271L25.9904 6.50014L25.9848 5.50016L9.34226 5.59273L9.34782 6.59271ZM25.9876 6.00015C25.9346 6.49733 25.9344 6.49731 25.9342 6.49729C25.9342 6.49728 25.934 6.49726 25.9339 6.49725C25.9337 6.49723 25.9335 6.49721 25.9334 6.4972C25.9332 6.49717 25.9331 6.49716 25.9331 6.49717C25.9332 6.49718 25.934 6.49727 25.9353 6.49742C25.9379 6.49774 25.9429 6.49836 25.95 6.49933C25.9644 6.50127 25.9875 6.50461 26.0183 6.50976C26.08 6.52007 26.172 6.53756 26.2857 6.56538C26.5143 6.62131 26.8245 6.71749 27.1507 6.8773C27.8027 7.19675 28.4859 7.75123 28.7604 8.72752L29.7231 8.4568C29.3468 7.1188 28.4029 6.37727 27.5906 5.97929C27.1846 5.78038 26.8032 5.66249 26.5234 5.59403C26.3829 5.55966 26.2664 5.53736 26.1832 5.52345C26.1416 5.51648 26.1081 5.5116 26.084 5.50834C26.0719 5.50671 26.0622 5.50549 26.0549 5.50461C26.0513 5.50417 26.0483 5.50382 26.0459 5.50355C26.0447 5.50341 26.0437 5.5033 26.0428 5.5032C26.0424 5.50316 26.042 5.50311 26.0416 5.50307C26.0414 5.50305 26.0412 5.50303 26.0411 5.50302C26.0409 5.50299 26.0407 5.50297 25.9876 6.00015ZM28.7619 8.73272C29.0824 9.82688 29.8921 13.2114 30.6261 16.3435C30.992 17.9049 31.3376 19.397 31.5918 20.4988C31.7188 21.0497 31.823 21.503 31.8954 21.8185C31.9317 21.9763 31.9599 22.0996 31.9791 22.1835C31.9887 22.2254 31.9961 22.2575 32.001 22.2791C32.0035 22.2898 32.0053 22.298 32.0066 22.3035C32.0072 22.3062 32.0077 22.3083 32.008 22.3096C32.0082 22.3103 32.0083 22.3108 32.0084 22.3112C32.0084 22.3114 32.0084 22.3115 32.0084 22.3116C32.0085 22.3116 32.0085 22.3117 32.4959 22.2003C32.9833 22.0888 32.9833 22.0887 32.9833 22.0886C32.9833 22.0886 32.9832 22.0885 32.9832 22.0883C32.9831 22.0879 32.983 22.0874 32.9828 22.0867C32.9825 22.0853 32.9821 22.0833 32.9814 22.0805C32.9802 22.0749 32.9783 22.0667 32.9758 22.056C32.9709 22.0343 32.9635 22.0021 32.9539 21.9601C32.9346 21.8762 32.9063 21.7527 32.8701 21.5948C32.7976 21.279 32.6933 20.8253 32.5662 20.274C32.3119 19.1715 31.966 17.6782 31.5997 16.1153C30.8693 12.9987 30.0519 9.57916 29.7216 8.4516L28.7619 8.73272ZM23.3818 22.7003L41.7909 22.7928L41.7959 21.7928L23.3868 21.7003L23.3818 22.7003ZM41.7934 22.2928C41.7591 22.7917 41.7589 22.7916 41.7587 22.7916C41.7587 22.7916 41.7585 22.7916 41.7584 22.7916C41.7582 22.7916 41.758 22.7916 41.7579 22.7916C41.7576 22.7915 41.7575 22.7915 41.7576 22.7915C41.7577 22.7915 41.7584 22.7916 41.7598 22.7917C41.7624 22.7919 41.7675 22.7924 41.7748 22.7931C41.7894 22.7945 41.8128 22.7971 41.8439 22.8012C41.9063 22.8094 41.9984 22.8238 42.1105 22.8481C42.3366 22.897 42.6333 22.9834 42.9273 23.1322C43.5032 23.4238 44.0455 23.9338 44.083 24.9041L45.0823 24.8654C45.0268 23.4289 44.1745 22.6429 43.379 22.2402C42.9874 22.0419 42.6041 21.9317 42.3218 21.8707C42.1796 21.8399 42.0604 21.8211 41.9749 21.8098C41.9321 21.8041 41.8976 21.8003 41.8726 21.7979C41.8601 21.7967 41.85 21.7958 41.8425 21.7951C41.8387 21.7948 41.8356 21.7946 41.8331 21.7944C41.8319 21.7943 41.8308 21.7942 41.8299 21.7942C41.8294 21.7941 41.829 21.7941 41.8286 21.7941C41.8284 21.7941 41.8282 21.794 41.8281 21.794C41.8279 21.794 41.8276 21.794 41.7934 22.2928ZM44.083 24.9034C44.1293 26.1473 44.1757 28.4565 44.2106 30.4594C44.228 31.4599 44.2425 32.3823 44.2527 33.0546C44.2578 33.3908 44.2618 33.6643 44.2645 33.8538C44.2658 33.9487 44.2669 34.0225 44.2676 34.0725C44.2679 34.0976 44.2682 34.1166 44.2684 34.1294C44.2685 34.1358 44.2685 34.1407 44.2686 34.1439C44.2686 34.1455 44.2686 34.1469 44.2686 34.1476C44.2686 34.1481 44.2686 34.1483 44.2686 34.1486C44.2686 34.1486 44.2686 34.1488 44.2686 34.1488C44.2686 34.1489 44.2686 34.1489 44.7686 34.142C45.2686 34.135 45.2686 34.135 45.2686 34.135C45.2686 34.135 45.2686 34.1349 45.2685 34.1348C45.2685 34.1346 45.2685 34.1343 45.2685 34.1339C45.2685 34.1331 45.2685 34.1318 45.2685 34.1302C45.2684 34.1269 45.2684 34.1219 45.2683 34.1155C45.2681 34.1026 45.2678 34.0836 45.2675 34.0585C45.2668 34.0083 45.2657 33.9345 45.2644 33.8396C45.2616 33.6498 45.2576 33.3758 45.2526 33.0394C45.2424 32.3666 45.2279 31.4433 45.2104 30.4419C45.1756 28.4412 45.129 26.1218 45.0823 24.8663L44.083 24.9034ZM24.314 38.7151H33.4256V37.7151H24.314V38.7151ZM10.5316 5.97956L7.6494 18.3842L8.62345 18.6105L11.5057 6.20588L10.5316 5.97956ZM4.17353 26.7362V20.2563H3.17353V26.7362H4.17353ZM3.67353 20.2563C4.17045 20.3117 4.17043 20.3118 4.1704 20.312C4.1704 20.312 4.17038 20.3123 4.17037 20.3124C4.17034 20.3126 4.17032 20.3127 4.1703 20.313C4.17026 20.3133 4.17023 20.3135 4.17022 20.3137C4.17018 20.314 4.17019 20.3138 4.17025 20.3134C4.17036 20.3125 4.17066 20.3102 4.17118 20.3064C4.17222 20.299 4.17413 20.2861 4.17712 20.2686C4.18312 20.2335 4.19337 20.1803 4.20959 20.1152C4.24247 19.983 4.29751 19.8108 4.38521 19.6406C4.55962 19.3025 4.82778 19.0268 5.28723 18.9963L5.221 17.9985C4.28581 18.0606 3.76369 18.6642 3.49646 19.1823C3.36334 19.4404 3.28473 19.6906 3.23917 19.8737C3.21616 19.9662 3.20099 20.044 3.19138 20.1003C3.18656 20.1286 3.1831 20.1516 3.18074 20.1686C3.17956 20.1771 3.17864 20.1841 3.17797 20.1895C3.17763 20.1922 3.17735 20.1945 3.17713 20.1964C3.17702 20.1973 3.17692 20.1981 3.17683 20.1989C3.17679 20.1993 3.17675 20.1995 3.17671 20.1999C3.1767 20.2001 3.17667 20.2002 3.17666 20.2003C3.17664 20.2006 3.17662 20.2008 3.67353 20.2563ZM5.28723 18.9963C5.96164 18.9515 8.4239 18.951 10.7488 18.9627C11.9043 18.9684 13.0165 18.977 13.8398 18.9844C14.2514 18.988 14.5908 18.9912 14.8272 18.9936C14.9455 18.9947 15.038 18.9957 15.1009 18.9963C15.1323 18.9966 15.1564 18.9969 15.1726 18.9971C15.1807 18.9972 15.1868 18.9972 15.1909 18.9973C15.193 18.9973 15.1945 18.9973 15.1955 18.9973C15.196 18.9973 15.1964 18.9974 15.1967 18.9974C15.1968 18.9974 15.1969 18.9974 15.197 18.9974C15.197 18.9974 15.1971 18.9974 15.2025 18.4974C15.2079 17.9974 15.2078 17.9974 15.2078 17.9974C15.2077 17.9974 15.2076 17.9974 15.2075 17.9974C15.2072 17.9974 15.2068 17.9974 15.2063 17.9974C15.2053 17.9974 15.2037 17.9974 15.2016 17.9974C15.1975 17.9973 15.1913 17.9972 15.1832 17.9972C15.1669 17.997 15.1428 17.9967 15.1113 17.9964C15.0482 17.9957 14.9556 17.9948 14.8372 17.9936C14.6004 17.9913 14.2606 17.988 13.8486 17.9844C13.0245 17.9771 11.911 17.9685 10.7538 17.9627C8.45314 17.9511 5.94121 17.9507 5.221 17.9985L5.28723 18.9963ZM15.2025 18.4974C15.1737 18.9966 15.1735 18.9965 15.1733 18.9965H15.1731C15.173 18.9965 15.173 18.9965 15.1731 18.9965C15.1733 18.9965 15.1739 18.9966 15.1749 18.9966C15.1768 18.9968 15.1803 18.997 15.1852 18.9973C15.1951 18.9981 15.211 18.9993 15.2325 19.0011C15.2755 19.0048 15.3411 19.0111 15.4272 19.0212C15.5993 19.0414 15.8531 19.077 16.1709 19.1375C16.8071 19.2587 17.6971 19.4794 18.703 19.8766C20.7144 20.6709 23.176 22.1655 25.0112 24.9733L25.8483 24.4261C23.8715 21.4018 21.2195 19.7953 19.0703 18.9465C17.9958 18.5221 17.0438 18.2858 16.3579 18.1552C16.0148 18.0899 15.7375 18.0509 15.544 18.0281C15.4472 18.0167 15.3713 18.0094 15.3184 18.0048C15.292 18.0025 15.2714 18.001 15.2567 17.9999C15.2494 17.9994 15.2436 17.999 15.2394 17.9987C15.2373 17.9986 15.2355 17.9985 15.2342 17.9984C15.2335 17.9984 15.2329 17.9983 15.2324 17.9983C15.2322 17.9983 15.2319 17.9983 15.2318 17.9981C15.2315 17.9981 15.2313 17.9982 15.2025 18.4974ZM25.0109 24.9728C26.6646 27.5093 27.3285 30.7911 27.5699 33.4807C27.69 34.8186 27.7043 35.995 27.6886 36.836C27.6807 37.2563 27.6654 37.5921 27.6521 37.8219C27.6455 37.9367 27.6394 38.0251 27.635 38.084C27.6328 38.1134 27.631 38.1357 27.6298 38.1502C27.6292 38.1573 27.6287 38.1627 27.6284 38.166C27.6283 38.1676 27.6282 38.1688 27.6281 38.1695C27.6281 38.1699 27.6281 38.1702 27.6281 38.1702C27.6281 38.1702 27.6281 38.1702 28.1261 38.2151C28.624 38.26 28.624 38.2599 28.6241 38.2598C28.6241 38.2597 28.6241 38.2594 28.6241 38.2593C28.6241 38.2589 28.6242 38.2582 28.6242 38.2576C28.6244 38.2563 28.6245 38.2546 28.6247 38.2523C28.6251 38.2477 28.6257 38.241 28.6264 38.2325C28.6278 38.2154 28.6298 38.1908 28.6322 38.1586C28.637 38.0942 28.6435 38.0004 28.6505 37.8797C28.6644 37.6382 28.6803 37.2893 28.6884 36.8547C28.7047 35.986 28.6899 34.7729 28.5659 33.3915C28.3192 30.6425 27.635 27.1666 25.8486 24.4265L25.0109 24.9728ZM42.3512 34.7346H46.1632V33.7346H42.3512V34.7346ZM46.1632 34.7346C46.354 34.7346 46.5 34.8831 46.5 35.0677H47.5C47.5 34.3267 46.9022 33.7346 46.1632 33.7346V34.7346ZM46.5 35.0677V37.9373H47.5V35.0677H46.5ZM46.5 37.9373C46.5 38.122 46.354 38.2705 46.1632 38.2705V39.2705C46.9022 39.2705 47.5 38.6784 47.5 37.9373H46.5ZM46.1632 38.2705H45.1405V39.2705H46.1632V38.2705Z" fill="#98368F"/>
</svg>
