<svg width="22" height="22" viewBox="0 0 22 22" fill="none" xmlns="http://www.w3.org/2000/svg">
<path d="M11 2.0625C6.05 2.0625 2.0625 6.05 2.0625 11C2.0625 15.95 6.05 19.9375 11 19.9375C15.95 19.9375 19.9375 15.95 19.9375 11C19.9375 10.0389 19.8083 9.07981 19.4645 8.18538L18.348 9.28125C18.4855 9.83125 18.5632 10.3826 18.5632 11C18.5632 15.1951 15.1958 18.5625 11.0007 18.5625C6.80556 18.5625 3.4375 15.1951 3.4375 11C3.4375 6.80487 6.80487 3.4375 11 3.4375C13.0625 3.4375 14.9153 4.25906 16.2209 5.56462L17.1875 4.598C15.6062 3.01538 13.4062 2.0625 11 2.0625ZM18.7557 5.00569L11 12.7621L8.05681 9.81819L7.06819 10.8068L10.5057 14.2443L11 14.7166L11.4943 14.2443L19.7443 5.99431L18.7557 5.00569Z" fill="white"/>
</svg>
