<svg width="48" height="48" viewBox="0 0 48 48" fill="none" xmlns="http://www.w3.org/2000/svg">
<g clip-path="url(#clip0)">
<path d="M31.8418 0C29.0428 0 26.2818 0.730435 23.8624 2.10593C21.5188 3.44348 19.5263 5.35968 18.0936 7.65533C18.0272 7.76917 17.9987 7.90197 18.0367 8.02529C18.0652 8.14861 18.1411 8.26245 18.2549 8.32885C18.3688 8.39526 18.5016 8.42371 18.625 8.38577C18.7483 8.35731 18.8622 8.28142 18.9286 8.16759C21.7181 3.66166 26.5475 0.977075 31.8418 0.977075C40.2198 0.977075 47.0322 7.78814 47.0322 16.1644C47.0322 24.5407 40.2198 31.3518 31.8418 31.3518C31.6616 31.3518 31.4623 31.3518 31.2346 31.3423L30.5894 31.3138L32.1929 29.7107C32.2878 29.6158 32.3352 29.4925 32.3352 29.3692C32.3352 29.2458 32.2878 29.113 32.1929 29.0277C32.098 28.9328 31.9747 28.8854 31.8513 28.8854C31.728 28.8854 31.5951 28.9328 31.5097 29.0277L29.0239 31.4941C28.8341 31.6838 28.8341 31.9968 29.0239 32.1866L31.5003 34.6624C31.5951 34.7573 31.7185 34.8047 31.8418 34.8047C31.9747 34.8047 32.098 34.7573 32.1834 34.6624C32.2783 34.5676 32.3257 34.4443 32.3257 34.3209C32.3257 34.1881 32.2783 34.0648 32.1834 33.9794L30.504 32.3004L31.2251 32.3288C31.4528 32.3383 31.6521 32.3383 31.8323 32.3383C36.1399 32.3383 40.2008 30.6593 43.256 27.5952C46.3111 24.5407 48 20.4806 48 16.1739C48.0095 7.24743 40.7606 0 31.8418 0Z" fill="#98368F"/>
<path d="M25.7411 21.4389V20.9646C25.7411 20.3527 25.7127 19.8263 25.6273 19.3899L25.5229 18.8872C24.4792 13.6698 19.849 9.88477 14.5262 9.88477C8.34001 9.88477 3.31133 14.9125 3.31133 21.0974V39.197L1.8312 39.8136C0.711605 40.2879 0 41.3599 0 42.5646V45.8658C0 47.0421 0.958294 48.0002 2.13481 48.0002H26.8892C28.0657 48.0002 29.024 47.0421 29.024 45.8658V42.5646C29.024 41.3599 28.3124 40.288 27.2023 39.8326L25.7221 39.216V22.4255C25.7221 22.103 25.7127 21.9132 25.7411 21.4389ZM14.5167 32.3291C16.9552 32.3291 19.0331 31.9117 20.6935 31.0864L21.7941 30.5362L21.0445 31.5133C20.8073 31.8263 20.5132 32.0729 20.1811 32.2627L15.883 34.6532C15.4561 34.8903 14.9911 35.0136 14.5167 35.0136C14.0423 35.0136 13.5774 34.8903 13.1505 34.6532L8.85236 32.2532C8.03639 31.7978 7.50506 30.982 7.41966 30.0524L6.86936 24.0192C6.85038 23.8484 6.97373 23.7061 7.14451 23.6587C9.87707 23.0136 12.3535 21.6002 14.289 19.5702C14.346 19.5038 14.4313 19.4753 14.5167 19.4753C14.6021 19.4753 14.6875 19.5133 14.7444 19.5702C16.68 21.6002 19.1469 23.0136 21.889 23.6587C22.0692 23.6967 22.1831 23.8484 22.1641 24.0192L21.6897 29.2461L21.6043 29.3219C20.9117 29.9291 18.8433 31.3425 14.5167 31.3425C14.2511 31.3425 14.0234 31.5607 14.0234 31.8358C14.0234 32.1109 14.2511 32.3291 14.5167 32.3291ZM8.37796 33.1164L9.90554 33.9607V35.6872C9.90554 36.1615 9.6209 36.5789 9.19393 36.7591L4.2886 38.8081V29.5591L4.67761 29.7109C4.9243 29.8057 5.18997 29.8532 5.45564 29.8532H6.43291L6.46137 30.1472C6.55625 31.3899 7.27734 32.4998 8.37796 33.1164ZM9.56397 37.6603C10.361 37.3283 10.8828 36.5504 10.8828 35.6872V34.5014L12.6761 35.4974C13.2453 35.8105 13.881 35.9812 14.5167 35.9812C15.1524 35.9812 15.7881 35.8105 16.3574 35.4974L18.1507 34.5014V35.6872C18.1507 36.5504 18.663 37.3283 19.4695 37.6603L20.703 38.1725L20.4563 38.4666C17.866 41.5496 15.3232 42.5931 14.6021 42.8397L14.5072 42.8682L14.4124 42.8397C13.7008 42.6026 11.1675 41.5781 8.56772 38.4666L8.32103 38.1725L9.56397 37.6603ZM19.849 36.7591C19.4126 36.5789 19.1374 36.1615 19.1374 35.6872V33.9607L20.665 33.1164C21.7656 32.5093 22.4867 31.3994 22.6006 30.1472L22.629 29.8532H23.6063C23.872 29.8532 24.1281 29.8057 24.3843 29.7109L24.7733 29.5591V38.8081L19.849 36.7591ZM23.5968 28.8761H22.7049L23.0655 24.9014H23.5968C24.2325 24.9014 24.7544 25.4231 24.7544 26.0587V27.7093C24.7544 28.3544 24.2325 28.8761 23.5968 28.8761ZM4.27912 21.1164C4.27912 15.4721 8.87134 10.8808 14.5167 10.8808C20.1621 10.8808 24.7544 15.4721 24.7544 21.1164V24.2279L24.3653 24.0761C24.1187 23.9812 23.853 23.9338 23.5873 23.9338H23.1509L23.1034 23.7156C22.9896 23.2223 22.6101 22.8429 22.1072 22.7291C19.5549 22.1219 17.2493 20.8034 15.4466 18.9156C15.2094 18.6595 14.8678 18.5172 14.5072 18.5172C14.1562 18.5172 13.8146 18.6595 13.5679 18.9156C11.7652 20.8034 9.4596 22.1219 6.90731 22.7291C6.40444 22.8524 6.02492 23.2318 5.91106 23.7156L5.86362 23.9338H5.42717C5.16151 23.9338 4.90533 23.9812 4.64915 24.0761L4.26014 24.2279V21.1164H4.27912ZM4.27912 26.0587C4.27912 25.4231 4.80096 24.9014 5.43666 24.9014H5.96799L6.32854 28.8761H5.43666C4.80096 28.8761 4.27912 28.3544 4.27912 27.7188V26.0587ZM2.13481 47.0231C1.49911 47.0231 0.977271 46.5014 0.977271 45.8658V42.5646C0.977271 42.318 1.02471 42.0808 1.1101 41.8532L1.25242 41.4927L4.2127 43.8547C4.6871 44.2342 4.96226 44.8034 4.96226 45.401V47.0231H2.13481ZM5.93004 45.401C5.93004 44.4998 5.52205 43.6555 4.81994 43.0864L1.98301 40.8192L6.6796 38.865L6.7555 39.197C7.06861 40.5536 7.79919 43.3235 9.10854 46.6437L9.26035 47.0326H5.93004V45.401ZM18.7105 47.0231H10.3135L10.2376 46.8429C9.12752 44.1204 8.39694 41.6729 7.98895 40.1077L7.69482 39.0073L8.47284 39.8421C11.4995 43.1148 14.2795 43.8358 14.3934 43.8642C14.4693 43.8832 14.5547 43.8832 14.6306 43.8642C14.7444 43.8358 17.5245 43.1148 20.5511 39.8421L21.3292 39.0073L21.035 40.1077C20.6176 41.6824 19.8965 44.1204 18.7864 46.8429L18.7105 47.0231ZM27.781 41.4832L27.9234 41.8437C28.0088 42.0713 28.0562 42.3085 28.0562 42.5551V45.8563C28.0562 46.4919 27.5344 47.0136 26.8987 47.0136H24.0902V45.3915C24.0902 44.7844 24.3653 44.2152 24.8397 43.8453L27.781 41.4832ZM27.0505 40.8192L24.2135 43.0864C23.5019 43.6555 23.1034 44.4998 23.1034 45.401V47.0231H19.7731L19.9249 46.6342C21.2343 43.314 21.9649 40.5441 22.278 39.1876L22.3539 38.8555L27.0505 40.8192Z" fill="#98368F"/>
</g>
<defs>
<clipPath id="clip0">
<rect width="48" height="48" fill="white"/>
</clipPath>
</defs>
</svg>
