<svg width="20" height="20" viewBox="0 0 20 20" fill="none" xmlns="http://www.w3.org/2000/svg">
<path fill-rule="evenodd" clip-rule="evenodd" d="M10 18.75C12.3206 18.75 14.5462 17.8281 16.1872 16.1872C17.8281 14.5462 18.75 12.3206 18.75 10C18.75 7.67936 17.8281 5.45376 16.1872 3.81282C14.5462 2.17187 12.3206 1.25 10 1.25C7.67936 1.25 5.45376 2.17187 3.81282 3.81282C2.17187 5.45376 1.25 7.67936 1.25 10C1.25 12.3206 2.17187 14.5462 3.81282 16.1872C5.45376 17.8281 7.67936 18.75 10 18.75ZM20 10C20 12.6522 18.9464 15.1957 17.0711 17.0711C15.1957 18.9464 12.6522 20 10 20C7.34784 20 4.8043 18.9464 2.92893 17.0711C1.05357 15.1957 0 12.6522 0 10C0 7.34784 1.05357 4.8043 2.92893 2.92893C4.8043 1.05357 7.34784 0 10 0C12.6522 0 15.1957 1.05357 17.0711 2.92893C18.9464 4.8043 20 7.34784 20 10Z" fill="#404042"/>
<path fill-rule="evenodd" clip-rule="evenodd" d="M9.375 3.75C9.54076 3.75 9.69973 3.81585 9.81694 3.93306C9.93415 4.05027 10 4.20924 10 4.375V10.8875L14.06 13.2075C14.1997 13.2918 14.301 13.4274 14.342 13.5854C14.3831 13.7433 14.3608 13.9111 14.2798 14.0527C14.1988 14.1944 14.0657 14.2989 13.9087 14.3437C13.7518 14.3885 13.5836 14.3701 13.44 14.2925L9.065 11.7925C8.96934 11.7379 8.88982 11.6589 8.83451 11.5636C8.77919 11.4684 8.75004 11.3602 8.75 11.25V4.375C8.75 4.20924 8.81585 4.05027 8.93306 3.93306C9.05027 3.81585 9.20924 3.75 9.375 3.75Z" fill="#404042"/>
</svg>
