<svg width="30" height="30" viewBox="0 0 30 30" fill="none" xmlns="http://www.w3.org/2000/svg">
<path d="M26.9354 9.26366C26.88 9.02689 26.6431 8.87988 26.4063 8.93524C24.8015 9.3108 22.9258 10.4023 21.5792 11.3792C21.3087 8.81442 20.7507 6.45892 19.9436 4.53446C18.7174 1.61037 17.0399 0 15.2202 0C13.6367 0 12.1783 1.19348 11.0027 3.45141C9.97082 5.43323 9.22493 8.15853 8.88536 11.1692C7.31098 10.1155 5.53652 9.36587 3.58822 8.93413C3.3508 8.88141 3.11568 9.03129 3.06307 9.26871C3.01047 9.50613 3.16024 9.74125 3.39771 9.79386C3.75765 9.87364 4.11049 9.96628 4.45757 10.0688C4.38636 13.687 4.83313 17.1916 5.7555 20.2185C6.67123 23.2234 8.03532 25.7152 9.70029 27.4243C11.3418 29.1094 13.2506 30 15.2202 30H15.6899C21.8383 30 25.9761 21.9555 26.0069 9.96769C26.2287 9.89243 26.4302 9.83407 26.607 9.79274C26.8437 9.73726 26.9908 9.50043 26.9354 9.26366ZM9.7091 11.7548C9.80163 10.799 9.93583 9.87129 10.1075 8.98667C10.1499 9.18552 10.3265 9.3347 10.5379 9.3347H11.0076C11.2508 9.3347 11.4479 9.13755 11.4479 8.89438C11.4479 8.65121 11.2508 8.45407 11.0076 8.45407H10.5379C10.3881 8.45407 10.256 8.52904 10.1765 8.64335C10.2301 8.38538 10.2868 8.13129 10.3467 7.88155C10.4046 7.90955 10.4693 7.92569 10.5379 7.92569H11.0076C11.2508 7.92569 11.4479 7.72855 11.4479 7.48538C11.4479 7.24221 11.2508 7.04507 11.0076 7.04507H10.5641C10.6141 6.86624 10.6659 6.69006 10.7193 6.51669H11.0076C11.2508 6.51669 11.4479 6.31955 11.4479 6.07638C11.4479 5.83515 11.2538 5.63941 11.0133 5.63636C11.087 5.43252 11.1631 5.23333 11.2417 5.03953C11.2695 5.02209 11.2955 5.0019 11.3188 4.97847C11.401 4.89687 11.4479 4.78297 11.4479 4.66732C11.4479 4.63697 11.4445 4.60673 11.4382 4.5772C11.5494 4.32746 11.6644 4.08716 11.7837 3.85808C11.8594 3.71272 11.9366 3.57294 12.0146 3.43749C12.0833 3.59131 12.2373 3.69863 12.4166 3.69863H12.8863C13.1295 3.69863 13.3266 3.50149 13.3266 3.25832C13.3266 3.01515 13.1295 2.818 12.8863 2.818H12.4166C12.4122 2.818 12.408 2.81853 12.4036 2.81865C12.5359 2.62614 12.6708 2.44714 12.8078 2.28211C12.8337 2.28687 12.8599 2.28957 12.8863 2.28957C13.0019 2.28957 13.1158 2.2426 13.1974 2.16041C13.2796 2.07881 13.3266 1.96491 13.3266 1.84926C13.3266 1.81409 13.3218 1.77928 13.3134 1.74528C13.9278 1.17863 14.5746 0.880626 15.2202 0.880626C15.7251 0.880626 16.2305 1.06532 16.7202 1.41611C16.6952 1.4117 16.6697 1.409 16.6436 1.409H16.174C15.9308 1.409 15.7336 1.60614 15.7336 1.84932C15.7336 2.09249 15.9308 2.28963 16.174 2.28963H16.6436C16.8868 2.28963 17.0839 2.09249 17.0839 1.84932C17.0839 1.78879 17.0717 1.73114 17.0496 1.67865C17.3899 1.97924 17.7205 2.36119 18.0355 2.81883C17.8003 2.82793 17.6123 3.02096 17.6123 3.25832C17.6123 3.50149 17.8095 3.69863 18.0526 3.69863H18.5223C18.5382 3.69863 18.5539 3.69769 18.5694 3.69605C18.7656 4.05793 18.9537 4.45098 19.1316 4.87503C19.2704 5.20614 19.4015 5.55094 19.5248 5.90783C19.5028 5.96102 19.491 6.01843 19.491 6.07632C19.491 6.19198 19.5379 6.30587 19.6201 6.38748C19.6452 6.41272 19.6736 6.43415 19.7038 6.45241C19.7649 6.64785 19.8239 6.84634 19.8805 7.04812C19.6613 7.07337 19.491 7.2593 19.491 7.48526C19.491 7.72843 19.6881 7.92558 19.9313 7.92558H20.1077C20.1492 8.09971 20.1888 8.27607 20.2271 8.45395H19.9313C19.6881 8.45395 19.491 8.6511 19.491 8.89427C19.491 9.13744 19.6881 9.33458 19.9313 9.33458H20.4009C20.4329 9.51247 20.4637 9.6917 20.4926 9.87264C20.463 9.86642 20.4324 9.86295 20.401 9.86295H19.9313C19.6881 9.86295 19.491 10.0601 19.491 10.3033C19.491 10.5464 19.6881 10.7436 19.9313 10.7436H20.401C20.4771 10.7436 20.5487 10.7242 20.6112 10.6902C20.6413 10.9196 20.669 11.1511 20.6942 11.3845C20.6163 11.3148 20.5137 11.272 20.401 11.272H19.9313C19.6881 11.272 19.491 11.4691 19.491 11.7123C19.491 11.9554 19.6881 12.1526 19.9313 12.1526H20.401C20.5449 12.1526 20.6723 12.0832 20.7526 11.9765C20.7833 12.3205 20.8087 12.6682 20.8288 13.019C20.7827 12.8252 20.6088 12.681 20.401 12.681H19.9313C19.6881 12.681 19.491 12.8781 19.491 13.1213C19.491 13.3644 19.6881 13.5616 19.9313 13.5616H20.401C20.6259 13.5616 20.8111 13.3928 20.8377 13.175C20.8693 13.7755 20.8856 14.3846 20.8856 14.9999C20.8856 15.7432 20.8609 16.477 20.8137 17.1963C20.7518 17.0281 20.5906 16.908 20.401 16.908H19.9313C19.6881 16.908 19.491 17.1051 19.491 17.3483C19.491 17.5914 19.6881 17.7886 19.9313 17.7886H20.401C20.568 17.7886 20.7133 17.6955 20.788 17.5584C20.7652 17.8558 20.7385 18.1505 20.7081 18.4421C20.6287 18.3648 20.5205 18.317 20.401 18.317H19.9313C19.6881 18.317 19.491 18.5141 19.491 18.7573C19.491 19.0005 19.6881 19.1976 19.9313 19.1976H20.401C20.4843 19.1976 20.562 19.174 20.6285 19.1337C20.6022 19.3411 20.5737 19.5464 20.5436 19.75C20.4988 19.7347 20.451 19.726 20.401 19.726H19.9313C19.6881 19.726 19.491 19.9231 19.491 20.1663C19.491 20.4095 19.6881 20.6066 19.9313 20.6066H20.401C20.402 20.6066 20.403 20.6065 20.404 20.6065C20.3722 20.7844 20.339 20.9606 20.3043 21.135H19.9313C19.6881 21.135 19.491 21.3321 19.491 21.5753C19.491 21.8185 19.6881 22.0156 19.9313 22.0156H20.1135C20.0713 22.1952 20.0276 22.3725 19.9823 22.5473C19.9654 22.5453 19.9484 22.544 19.9313 22.544C19.8156 22.544 19.7017 22.5909 19.6201 22.6731C19.5379 22.7547 19.491 22.8686 19.491 22.9843C19.491 23.0999 19.5379 23.2138 19.6201 23.2954C19.6571 23.3327 19.7009 23.3622 19.7482 23.3839C19.5041 24.1938 19.2257 24.9406 18.9177 25.6096C18.8462 25.4631 18.6962 25.362 18.5223 25.362H18.0526C17.8095 25.362 17.6123 25.5591 17.6123 25.8023C17.6123 26.0455 17.8095 26.2426 18.0526 26.2426H18.5223C18.5524 26.2426 18.5817 26.2395 18.6101 26.2338C18.4998 26.442 18.3863 26.6403 18.2698 26.829C18.2039 26.7916 18.1288 26.7709 18.0526 26.7709C17.937 26.7709 17.8231 26.8179 17.7415 26.9001C17.6593 26.9817 17.6123 27.0956 17.6123 27.2112C17.6123 27.3269 17.6593 27.4408 17.7415 27.5224C17.7513 27.5323 17.7617 27.5416 17.7724 27.5505C17.542 27.8469 17.3024 28.1059 17.0545 28.3243C17.0451 28.0707 17.0303 27.7805 17.0076 27.4585C17.0567 27.386 17.084 27.2992 17.084 27.2113C17.084 27.0998 17.04 26.9902 16.9632 26.9094C16.942 26.6748 16.9167 26.4278 16.8866 26.1692C16.9111 26.153 16.9341 26.1345 16.9548 26.1134C17.037 26.0318 17.084 25.9179 17.084 25.8023C17.084 25.6866 17.037 25.5727 16.9548 25.4911C16.907 25.4429 16.848 25.4073 16.7841 25.3857C16.7579 25.2044 16.7294 25.0189 16.6983 24.8297C16.7945 24.8174 16.8861 24.7735 16.9548 24.7044C17.037 24.6228 17.0839 24.5089 17.0839 24.3932C17.0839 24.2776 17.037 24.1637 16.9548 24.0821C16.8732 23.9999 16.7593 23.9529 16.6436 23.9529C16.6096 23.9529 16.5758 23.9574 16.5428 23.9653C16.508 23.7876 16.4707 23.6071 16.4312 23.4245H16.6436C16.8868 23.4245 17.0839 23.2274 17.0839 22.9842C17.0839 22.7411 16.8868 22.5439 16.6436 22.5439H16.2256C16.181 22.3663 16.134 22.187 16.0846 22.0064C16.1135 22.0124 16.1434 22.0155 16.174 22.0155H16.6436C16.8868 22.0155 17.0839 21.8184 17.0839 21.5752C17.0839 21.3321 16.8868 21.1349 16.6436 21.1349H16.174C16.0551 21.1349 15.9474 21.1822 15.8682 21.2588C15.648 20.5391 15.3876 19.8029 15.0802 19.0639C15.1598 18.982 15.2053 18.8708 15.2053 18.7572C15.2053 18.6416 15.1584 18.5277 15.0762 18.4461C14.9946 18.3639 14.8807 18.3169 14.765 18.3169C14.7613 18.3169 14.7576 18.3174 14.7539 18.3175C14.6813 18.1597 14.6066 18.0019 14.5295 17.8444C14.5203 17.8256 14.5106 17.8073 14.5014 17.7885H14.765C15.0082 17.7885 15.2053 17.5914 15.2053 17.3482C15.2053 17.105 15.0082 16.9079 14.765 16.9079H14.2953C14.2143 16.9079 14.1386 16.9302 14.0733 16.9684C13.6835 16.2612 13.2595 15.5949 12.8034 14.9705H12.8863C13.1295 14.9705 13.3267 14.7734 13.3267 14.5302C13.3267 14.287 13.1295 14.0899 12.8863 14.0899H12.4167C12.3278 14.0899 12.2453 14.1164 12.1761 14.1617C11.929 13.8627 11.673 13.5757 11.4095 13.2995C11.4344 13.2436 11.448 13.1827 11.448 13.1212C11.448 13.0056 11.401 12.8917 11.3188 12.8101C11.2372 12.7279 11.1233 12.6809 11.0077 12.6809C10.9454 12.6809 10.8838 12.6949 10.8273 12.7204C10.6925 12.5931 10.5564 12.4677 10.4178 12.3462C10.1867 12.1435 9.94998 11.9487 9.7081 11.7617C9.70834 11.7595 9.70887 11.7572 9.7091 11.7548ZM10.3311 26.8099C8.76372 25.2009 7.47278 22.8329 6.59791 19.9619C5.72515 17.0978 5.29082 13.7869 5.33339 10.3567C7.00834 10.9647 8.51797 11.8515 9.8372 13.0084C11.3994 14.3783 12.712 16.1358 13.7386 18.2318C16.0002 22.8497 16.187 27.6646 16.1889 29.0674C16.169 29.064 16.1487 29.0614 16.1279 29.0608C14.0666 29.0018 10.3383 25.5137 8.69937 19.1179C8.63902 18.8823 8.39926 18.7403 8.16354 18.8006C7.928 18.861 7.78593 19.1008 7.84634 19.3364C8.82648 23.1615 10.4161 25.6333 11.5771 27.0333C12.1774 27.7573 12.8017 28.3608 13.4228 28.8274C12.3334 28.4704 11.2862 27.7903 10.3311 26.8099ZM22.458 23.8887C21.2506 26.3123 19.724 27.9255 17.9688 28.6613C20.2518 26.2855 21.7662 20.9952 21.7662 15C21.7662 14.1228 21.734 13.2571 21.6714 12.4101C22.9164 11.4414 24.1324 10.7532 25.1245 10.3148C25.0739 15.798 24.1547 20.4834 22.458 23.8887Z"  />
<path d="M14.2955 6.51734H14.7652C15.0084 6.51734 15.2055 6.3202 15.2055 6.07703C15.2055 5.83386 15.0084 5.63672 14.7652 5.63672H14.2955C14.0524 5.63672 13.8552 5.83386 13.8552 6.07703C13.8552 6.3202 14.0524 6.51734 14.2955 6.51734Z"  />
<path d="M14.2955 7.92555H14.7652C15.0084 7.92555 15.2055 7.72841 15.2055 7.48524C15.2055 7.24206 15.0084 7.04492 14.7652 7.04492H14.2955C14.0524 7.04492 13.8552 7.24206 13.8552 7.48524C13.8552 7.72841 14.0524 7.92555 14.2955 7.92555Z"  />
<path d="M14.2955 9.33375H14.7652C15.0084 9.33375 15.2055 9.13661 15.2055 8.89344C15.2055 8.65027 15.0084 8.45312 14.7652 8.45312H14.2955C14.0524 8.45312 13.8552 8.65027 13.8552 8.89344C13.8552 9.13661 14.0524 9.33375 14.2955 9.33375Z"  />
<path d="M14.2955 10.7439H14.7652C15.0084 10.7439 15.2055 10.5468 15.2055 10.3036C15.2055 10.0604 15.0084 9.86328 14.7652 9.86328H14.2955C14.0524 9.86328 13.8552 10.0604 13.8552 10.3036C13.8552 10.5468 14.0524 10.7439 14.2955 10.7439Z"  />
<path d="M14.2955 12.1521H14.7652C15.0084 12.1521 15.2055 11.955 15.2055 11.7118C15.2055 11.4686 15.0084 11.2715 14.7652 11.2715H14.2955C14.0524 11.2715 13.8552 11.4686 13.8552 11.7118C13.8552 11.955 14.0524 12.1521 14.2955 12.1521Z"  />
<path d="M14.2955 5.10719H14.7652C15.0084 5.10719 15.2055 4.91005 15.2055 4.66688C15.2055 4.42371 15.0084 4.22656 14.7652 4.22656H14.2955C14.0524 4.22656 13.8552 4.42371 13.8552 4.66688C13.8552 4.91005 14.0524 5.10719 14.2955 5.10719Z"  />
<path d="M14.2955 3.69899H14.7652C15.0084 3.69899 15.2055 3.50184 15.2055 3.25867C15.2055 3.0155 15.0084 2.81836 14.7652 2.81836H14.2955C14.0524 2.81836 13.8552 3.0155 13.8552 3.25867C13.8552 3.50184 14.0524 3.69899 14.2955 3.69899Z"  />
<path d="M14.2955 2.28883H14.7652C15.0084 2.28883 15.2055 2.09169 15.2055 1.84852C15.2055 1.60535 15.0084 1.4082 14.7652 1.4082H14.2955C14.0524 1.4082 13.8552 1.60535 13.8552 1.84852C13.8552 2.09169 14.0524 2.28883 14.2955 2.28883Z"  />
<path d="M14.2955 16.3787H14.7652C15.0084 16.3787 15.2055 16.1815 15.2055 15.9384C15.2055 15.6952 15.0084 15.498 14.7652 15.498H14.2955C14.0524 15.498 13.8552 15.6952 13.8552 15.9384C13.8552 16.1815 14.0524 16.3787 14.2955 16.3787Z"  />
<path d="M14.2955 14.9705H14.7652C15.0084 14.9705 15.2055 14.7733 15.2055 14.5302C15.2055 14.287 15.0084 14.0898 14.7652 14.0898H14.2955C14.0524 14.0898 13.8552 14.287 13.8552 14.5302C13.8552 14.7733 14.0524 14.9705 14.2955 14.9705Z"  />
<path d="M14.2955 13.5623H14.7652C15.0084 13.5623 15.2055 13.3651 15.2055 13.122C15.2055 12.8788 15.0084 12.6816 14.7652 12.6816H14.2955C14.0524 12.6816 13.8552 12.8788 13.8552 13.122C13.8552 13.3651 14.0524 13.5623 14.2955 13.5623Z"  />
<path d="M16.1742 6.51734H16.6439C16.887 6.51734 17.0842 6.3202 17.0842 6.07703C17.0842 5.83386 16.887 5.63672 16.6439 5.63672H16.1742C15.931 5.63672 15.7339 5.83386 15.7339 6.07703C15.7339 6.3202 15.931 6.51734 16.1742 6.51734Z"  />
<path d="M16.1742 7.92555H16.6439C16.887 7.92555 17.0842 7.72841 17.0842 7.48524C17.0842 7.24206 16.887 7.04492 16.6439 7.04492H16.1742C15.931 7.04492 15.7339 7.24206 15.7339 7.48524C15.7339 7.72841 15.931 7.92555 16.1742 7.92555Z"  />
<path d="M16.1742 9.33375H16.6439C16.887 9.33375 17.0842 9.13661 17.0842 8.89344C17.0842 8.65027 16.887 8.45312 16.6439 8.45312H16.1742C15.931 8.45312 15.7339 8.65027 15.7339 8.89344C15.7339 9.13661 15.931 9.33375 16.1742 9.33375Z"  />
<path d="M16.1742 10.7439H16.6439C16.887 10.7439 17.0842 10.5468 17.0842 10.3036C17.0842 10.0604 16.887 9.86328 16.6439 9.86328H16.1742C15.931 9.86328 15.7339 10.0604 15.7339 10.3036C15.7339 10.5468 15.931 10.7439 16.1742 10.7439Z"  />
<path d="M16.1742 12.1521H16.6439C16.887 12.1521 17.0842 11.955 17.0842 11.7118C17.0842 11.4686 16.887 11.2715 16.6439 11.2715H16.1742C15.931 11.2715 15.7339 11.4686 15.7339 11.7118C15.7339 11.955 15.931 12.1521 16.1742 12.1521Z"  />
<path d="M16.1742 5.10719H16.6439C16.887 5.10719 17.0842 4.91005 17.0842 4.66688C17.0842 4.42371 16.887 4.22656 16.6439 4.22656H16.1742C15.931 4.22656 15.7339 4.42371 15.7339 4.66688C15.7339 4.91005 15.931 5.10719 16.1742 5.10719Z"  />
<path d="M16.1742 3.69899H16.6439C16.887 3.69899 17.0842 3.50184 17.0842 3.25867C17.0842 3.0155 16.887 2.81836 16.6439 2.81836H16.1742C15.931 2.81836 15.7339 3.0155 15.7339 3.25867C15.7339 3.50184 15.931 3.69899 16.1742 3.69899Z"  />
<path d="M16.1742 17.7888H16.6439C16.887 17.7888 17.0842 17.5917 17.0842 17.3485C17.0842 17.1053 16.887 16.9082 16.6439 16.9082H16.1742C15.931 16.9082 15.7339 17.1053 15.7339 17.3485C15.7339 17.5917 15.931 17.7888 16.1742 17.7888Z"  />
<path d="M16.1742 19.197H16.6439C16.887 19.197 17.0842 18.9999 17.0842 18.7567C17.0842 18.5135 16.887 18.3164 16.6439 18.3164H16.1742C15.931 18.3164 15.7339 18.5135 15.7339 18.7567C15.7339 18.9999 15.931 19.197 16.1742 19.197Z"  />
<path d="M16.1742 20.6072H16.6439C16.887 20.6072 17.0842 20.41 17.0842 20.1669C17.0842 19.9237 16.887 19.7266 16.6439 19.7266H16.1742C15.931 19.7266 15.7339 19.9237 15.7339 20.1669C15.7339 20.41 15.931 20.6072 16.1742 20.6072Z"  />
<path d="M16.1742 16.3787H16.6439C16.887 16.3787 17.0842 16.1815 17.0842 15.9384C17.0842 15.6952 16.887 15.498 16.6439 15.498H16.1742C15.931 15.498 15.7339 15.6952 15.7339 15.9384C15.7339 16.1815 15.931 16.3787 16.1742 16.3787Z"  />
<path d="M16.1742 14.9705H16.6439C16.887 14.9705 17.0842 14.7733 17.0842 14.5302C17.0842 14.287 16.887 14.0898 16.6439 14.0898H16.1742C15.931 14.0898 15.7339 14.287 15.7339 14.5302C15.7339 14.7733 15.931 14.9705 16.1742 14.9705Z"  />
<path d="M16.1742 13.5623H16.6439C16.887 13.5623 17.0842 13.3651 17.0842 13.122C17.0842 12.8788 16.887 12.6816 16.6439 12.6816H16.1742C15.931 12.6816 15.7339 12.8788 15.7339 13.122C15.7339 13.3651 15.931 13.5623 16.1742 13.5623Z"  />
<path d="M12.4169 6.51734H12.8865C13.1297 6.51734 13.3269 6.3202 13.3269 6.07703C13.3269 5.83386 13.1297 5.63672 12.8865 5.63672H12.4169C12.1737 5.63672 11.9766 5.83386 11.9766 6.07703C11.9766 6.3202 12.1737 6.51734 12.4169 6.51734Z"  />
<path d="M12.4169 7.92555H12.8865C13.1297 7.92555 13.3269 7.72841 13.3269 7.48524C13.3269 7.24206 13.1297 7.04492 12.8865 7.04492H12.4169C12.1737 7.04492 11.9766 7.24206 11.9766 7.48524C11.9766 7.72841 12.1737 7.92555 12.4169 7.92555Z"  />
<path d="M12.4169 9.33375H12.8865C13.1297 9.33375 13.3269 9.13661 13.3269 8.89344C13.3269 8.65027 13.1297 8.45312 12.8865 8.45312H12.4169C12.1737 8.45312 11.9766 8.65027 11.9766 8.89344C11.9766 9.13661 12.1737 9.33375 12.4169 9.33375Z"  />
<path d="M12.4169 10.7439H12.8865C13.1297 10.7439 13.3269 10.5468 13.3269 10.3036C13.3269 10.0604 13.1297 9.86328 12.8865 9.86328H12.4169C12.1737 9.86328 11.9766 10.0604 11.9766 10.3036C11.9766 10.5468 12.1737 10.7439 12.4169 10.7439Z"  />
<path d="M12.4169 12.1521H12.8865C13.1297 12.1521 13.3269 11.955 13.3269 11.7118C13.3269 11.4686 13.1297 11.2715 12.8865 11.2715H12.4169C12.1737 11.2715 11.9766 11.4686 11.9766 11.7118C11.9766 11.955 12.1737 12.1521 12.4169 12.1521Z"  />
<path d="M12.4169 5.10719H12.8865C13.1297 5.10719 13.3269 4.91005 13.3269 4.66688C13.3269 4.42371 13.1297 4.22656 12.8865 4.22656H12.4169C12.1737 4.22656 11.9766 4.42371 11.9766 4.66688C11.9766 4.91005 12.1737 5.10719 12.4169 5.10719Z"  />
<path d="M12.4169 13.5623H12.8865C13.1297 13.5623 13.3269 13.3651 13.3269 13.122C13.3269 12.8788 13.1297 12.6816 12.8865 12.6816H12.4169C12.1737 12.6816 11.9766 12.8788 11.9766 13.122C11.9766 13.3651 12.1737 13.5623 12.4169 13.5623Z"  />
<path d="M18.0529 6.51734H18.5225C18.7657 6.51734 18.9628 6.3202 18.9628 6.07703C18.9628 5.83386 18.7657 5.63672 18.5225 5.63672H18.0529C17.8097 5.63672 17.6125 5.83386 17.6125 6.07703C17.6125 6.3202 17.8097 6.51734 18.0529 6.51734Z"  />
<path d="M18.0529 7.92555H18.5225C18.7657 7.92555 18.9628 7.72841 18.9628 7.48524C18.9628 7.24206 18.7657 7.04492 18.5225 7.04492H18.0529C17.8097 7.04492 17.6125 7.24206 17.6125 7.48524C17.6125 7.72841 17.8097 7.92555 18.0529 7.92555Z"  />
<path d="M18.0529 9.33375H18.5225C18.7657 9.33375 18.9628 9.13661 18.9628 8.89344C18.9628 8.65027 18.7657 8.45312 18.5225 8.45312H18.0529C17.8097 8.45312 17.6125 8.65027 17.6125 8.89344C17.6125 9.13661 17.8097 9.33375 18.0529 9.33375Z"  />
<path d="M18.0529 10.7439H18.5225C18.7657 10.7439 18.9628 10.5468 18.9628 10.3036C18.9628 10.0604 18.7657 9.86328 18.5225 9.86328H18.0529C17.8097 9.86328 17.6125 10.0604 17.6125 10.3036C17.6125 10.5468 17.8097 10.7439 18.0529 10.7439Z"  />
<path d="M18.0529 12.1521H18.5225C18.7657 12.1521 18.9628 11.955 18.9628 11.7118C18.9628 11.4686 18.7657 11.2715 18.5225 11.2715H18.0529C17.8097 11.2715 17.6125 11.4686 17.6125 11.7118C17.6125 11.955 17.8097 12.1521 18.0529 12.1521Z"  />
<path d="M18.0529 5.10719H18.5225C18.7657 5.10719 18.9628 4.91005 18.9628 4.66688C18.9628 4.42371 18.7657 4.22656 18.5225 4.22656H18.0529C17.8097 4.22656 17.6125 4.42371 17.6125 4.66688C17.6125 4.91005 17.8097 5.10719 18.0529 5.10719Z"  />
<path d="M18.0529 17.7888H18.5225C18.7657 17.7888 18.9628 17.5917 18.9628 17.3485C18.9628 17.1053 18.7657 16.9082 18.5225 16.9082H18.0529C17.8097 16.9082 17.6125 17.1053 17.6125 17.3485C17.6125 17.5917 17.8097 17.7888 18.0529 17.7888Z"  />
<path d="M18.0529 19.197H18.5225C18.7657 19.197 18.9628 18.9999 18.9628 18.7567C18.9628 18.5135 18.7657 18.3164 18.5225 18.3164H18.0529C17.8097 18.3164 17.6125 18.5135 17.6125 18.7567C17.6125 18.9999 17.8097 19.197 18.0529 19.197Z"  />
<path d="M18.0529 20.6072H18.5225C18.7657 20.6072 18.9628 20.41 18.9628 20.1669C18.9628 19.9237 18.7657 19.7266 18.5225 19.7266H18.0529C17.8097 19.7266 17.6125 19.9237 17.6125 20.1669C17.6125 20.41 17.8097 20.6072 18.0529 20.6072Z"  />
<path d="M18.0529 22.0154H18.5225C18.7657 22.0154 18.9628 21.8182 18.9628 21.5751C18.9628 21.3319 18.7657 21.1348 18.5225 21.1348H18.0529C17.8097 21.1348 17.6125 21.3319 17.6125 21.5751C17.6125 21.8182 17.8097 22.0154 18.0529 22.0154Z"  />
<path d="M18.0529 23.4255H18.5225C18.7657 23.4255 18.9628 23.2284 18.9628 22.9852C18.9628 22.7421 18.7657 22.5449 18.5225 22.5449H18.0529C17.8097 22.5449 17.6125 22.7421 17.6125 22.9852C17.6125 23.2284 17.8097 23.4255 18.0529 23.4255Z"  />
<path d="M18.0529 16.3787H18.5225C18.7657 16.3787 18.9628 16.1815 18.9628 15.9384C18.9628 15.6952 18.7657 15.498 18.5225 15.498H18.0529C17.8097 15.498 17.6125 15.6952 17.6125 15.9384C17.6125 16.1815 17.8097 16.3787 18.0529 16.3787Z"  />
<path d="M18.0529 14.9705H18.5225C18.7657 14.9705 18.9628 14.7733 18.9628 14.5302C18.9628 14.287 18.7657 14.0898 18.5225 14.0898H18.0529C17.8097 14.0898 17.6125 14.287 17.6125 14.5302C17.6125 14.7733 17.8097 14.9705 18.0529 14.9705Z"  />
<path d="M18.0529 13.5623H18.5225C18.7657 13.5623 18.9628 13.3651 18.9628 13.122C18.9628 12.8788 18.7657 12.6816 18.5225 12.6816H18.0529C17.8097 12.6816 17.6125 12.8788 17.6125 13.122C17.6125 13.3651 17.8097 13.5623 18.0529 13.5623Z"  />
<path d="M19.9315 16.3787H20.4012C20.6444 16.3787 20.8415 16.1815 20.8415 15.9384C20.8415 15.6952 20.6444 15.498 20.4012 15.498H19.9315C19.6884 15.498 19.4912 15.6952 19.4912 15.9384C19.4912 16.1815 19.6884 16.3787 19.9315 16.3787Z"  />
<path d="M19.9315 14.9705H20.4012C20.6444 14.9705 20.8415 14.7733 20.8415 14.5302C20.8415 14.287 20.6444 14.0898 20.4012 14.0898H19.9315C19.6884 14.0898 19.4912 14.287 19.4912 14.5302C19.4912 14.7733 19.6884 14.9705 19.9315 14.9705Z"  />
<path d="M10.5382 10.7439H11.0078C11.251 10.7439 11.4481 10.5468 11.4481 10.3036C11.4481 10.0604 11.251 9.86328 11.0078 9.86328H10.5382C10.295 9.86328 10.0978 10.0604 10.0978 10.3036C10.0978 10.5468 10.295 10.7439 10.5382 10.7439Z"  />
<path d="M11.0078 12.1521C11.251 12.1521 11.4481 11.955 11.4481 11.7118C11.4481 11.4686 11.251 11.2715 11.0078 11.2715H10.5382C10.295 11.2715 10.0978 11.4686 10.0978 11.7118C10.0978 11.955 10.295 12.1521 10.5382 12.1521H11.0078Z"  />
<path d="M18.0529 24.8338H18.5225C18.7657 24.8338 18.9628 24.6366 18.9628 24.3934C18.9628 24.1503 18.7657 23.9531 18.5225 23.9531H18.0529C17.8097 23.9531 17.6125 24.1503 17.6125 24.3934C17.6125 24.6366 17.8097 24.8338 18.0529 24.8338Z"  />
<path d="M7.94425 17.7822C8.18378 17.74 8.3437 17.5117 8.30149 17.2722C8.24795 16.968 8.19905 16.6573 8.15619 16.3486C8.12278 16.1077 7.90028 15.9397 7.65957 15.973C7.41869 16.0064 7.25055 16.2287 7.28395 16.4696C7.32822 16.7888 7.37883 17.1102 7.43425 17.4249C7.47188 17.6386 7.65769 17.7889 7.86734 17.7889C7.8927 17.7889 7.91842 17.7867 7.94425 17.7822Z"  />
</svg>
