<svg width="30" height="30" viewBox="0 0 30 30" fill="none" xmlns="http://www.w3.org/2000/svg">
<g clip-path="url(#clip0)">
<path d="M18.5803 11.8168C18.6673 11.9039 18.7815 11.9475 18.8956 11.9475C19.0097 11.9475 19.1239 11.9039 19.2109 11.8168C19.5659 11.4619 19.7614 10.9899 19.7614 10.4879C19.7614 9.98588 19.5659 9.51397 19.2109 9.15894C18.4782 8.42619 17.2859 8.42619 16.5531 9.15894C16.3789 9.3331 16.3789 9.6154 16.5531 9.78955C16.7272 9.96371 17.0096 9.96371 17.1837 9.78955C17.5688 9.40456 18.1953 9.4045 18.5802 9.78955C18.7668 9.97607 18.8694 10.2241 18.8694 10.4878C18.8694 10.7516 18.7667 10.9996 18.5802 11.1861C18.4062 11.3603 18.4062 11.6427 18.5803 11.8168Z"  />
<path d="M25.1631 12.2923C25.2501 12.3794 25.3643 12.4229 25.4784 12.4229C25.5925 12.4229 25.7066 12.3794 25.7937 12.2923C26.1486 11.9374 26.3441 11.4654 26.3441 10.9634C26.3441 10.4614 26.1486 9.98947 25.7937 9.63444C25.4387 9.27942 24.9667 9.08398 24.4647 9.08398C23.9627 9.08398 23.4908 9.27948 23.1358 9.63444C22.9617 9.8086 22.9617 10.091 23.1358 10.2651C23.31 10.4392 23.5923 10.4392 23.7664 10.2651C23.9529 10.0785 24.2009 9.97585 24.4647 9.97585C24.7284 9.97585 24.9764 10.0786 25.163 10.2651C25.3495 10.4516 25.4522 10.6996 25.4522 10.9633C25.4522 11.2271 25.3494 11.4751 25.163 11.6616C24.9889 11.8359 24.9889 12.1182 25.1631 12.2923Z"  />
<path d="M16.5141 22.1165C16.6011 22.2036 16.7153 22.2472 16.8294 22.2472C16.9435 22.2472 17.0576 22.2036 17.1447 22.1165C17.4997 21.7616 17.6952 21.2896 17.6952 20.7876C17.6952 20.2856 17.4997 19.8137 17.1447 19.4587C16.7897 19.1036 16.3178 18.9082 15.8158 18.9082C15.3138 18.9082 14.8418 19.1037 14.4868 19.4587C14.3127 19.6328 14.3127 19.9152 14.4868 20.0893C14.661 20.2634 14.9433 20.2634 15.1174 20.0893C15.3039 19.9028 15.5519 19.8001 15.8157 19.8001C16.0794 19.8001 16.3274 19.9028 16.514 20.0893C16.7005 20.2758 16.8032 20.5238 16.8032 20.7875C16.8032 21.0513 16.7004 21.2993 16.514 21.4858C16.3399 21.6601 16.3399 21.9424 16.5141 22.1165Z"  />
<path d="M11.578 27.9351C11.412 28.0322 11.2453 28.1283 11.078 28.2234C9.32292 29.2205 7.2334 29.3821 5.34526 28.6669C3.45611 27.9512 1.99731 26.4446 1.34292 24.5333L1.29583 24.3958C0.245746 21.3288 1.53645 17.9327 4.36486 16.3207C6.26471 15.2379 8.06105 13.9517 9.70399 12.498C9.87457 12.3471 9.904 12.0919 9.7723 11.9061C9.49345 11.5128 9.53846 10.9797 9.87939 10.6389C10.226 10.2923 10.7818 10.2543 11.1723 10.5506C11.3538 10.6881 11.6098 10.6669 11.7661 10.5013C13.5077 8.65576 15.0263 6.60495 16.2798 4.40567C16.592 3.85776 16.9769 3.35737 17.4235 2.91821C17.5991 2.74555 17.6015 2.46324 17.4289 2.2876C17.2562 2.11196 16.9739 2.10959 16.7982 2.28225C16.293 2.77896 15.8579 3.34482 15.505 3.96401C14.3451 5.99913 12.9514 7.90368 11.3595 9.62968C10.6604 9.31057 9.81024 9.44667 9.24878 10.0082C8.69808 10.5589 8.55271 11.3727 8.84518 12.0643C7.3214 13.3816 5.6671 14.5519 3.92321 15.5458C0.723251 17.3697 -0.736615 21.2131 0.452005 24.6846L0.499155 24.8224C1.23982 26.9856 2.89096 28.6909 5.0293 29.5009C5.90957 29.8344 6.82831 29.9995 7.74355 29.9995C9.05049 29.9995 10.3501 29.6627 11.5186 28.9989C11.6892 28.902 11.8592 28.804 12.0284 28.7049C12.2409 28.5805 12.3124 28.3074 12.1881 28.0948C12.0637 27.8822 11.7905 27.8107 11.578 27.9351Z"  />
<path d="M29.4603 5.07074C29.0793 4.06501 28.5001 3.16714 27.7686 2.421C28.2216 2.07074 28.7916 1.434 28.7916 0.445933C28.7916 0.199659 28.5919 0 28.3457 0C28.0994 0 27.8997 0.199659 27.8997 0.445933C27.8997 1.16716 27.3991 1.60845 27.0933 1.81079C26.4111 1.26401 25.6321 0.831755 24.7819 0.54065L24.644 0.49344C22.6088 -0.203465 20.3591 -0.00576741 18.4717 1.03575C18.2561 1.15473 18.1777 1.42598 18.2967 1.64163C18.4157 1.85722 18.687 1.93559 18.9026 1.81661C20.57 0.896504 22.5575 0.721698 24.3552 1.33726L24.4929 1.38436C26.404 2.03869 27.9105 3.49748 28.6262 5.38664C29.3415 7.27484 29.1799 9.3643 28.1827 11.1194C27.4383 12.4297 26.6172 13.72 25.7423 14.9544C25.6225 15.1234 25.6349 15.3527 25.7722 15.5078C26.1172 15.8976 26.0995 16.491 25.7317 16.8588C25.4362 17.1543 24.9838 17.231 24.606 17.0494C24.4193 16.9597 24.1954 17.0103 24.0654 17.1718C23.6612 17.6741 23.2335 18.1823 22.7944 18.6821C22.6653 18.8291 22.647 19.043 22.7493 19.2097C22.9891 19.6003 22.9303 20.0992 22.6065 20.4231C22.2998 20.7298 21.8356 20.8011 21.4515 20.6006C21.278 20.5101 21.066 20.5431 20.9284 20.682C18.5713 23.0607 15.9486 25.1808 13.133 26.9836C12.9256 27.1164 12.8651 27.3922 12.998 27.5996C13.0831 27.7325 13.227 27.8051 13.3739 27.8051C13.4562 27.8051 13.5395 27.7824 13.6139 27.7347C16.4013 25.95 19.0031 23.8605 21.3516 21.5206C22.0102 21.7266 22.7348 21.5561 23.2372 21.0537C23.7727 20.5182 23.9277 19.7312 23.6603 19.0464C23.968 18.6918 24.2692 18.3342 24.5599 17.9781C25.1964 18.1438 25.886 17.9658 26.3624 17.4894C26.9758 16.876 27.0782 15.9332 26.653 15.21C27.4766 14.0307 28.2513 12.8042 28.9582 11.56C30.0869 9.5733 30.2699 7.20801 29.4603 5.07074Z"  />
<path d="M7.80742 21.6019C7.89447 21.689 8.00863 21.7326 8.12272 21.7326C8.23682 21.7326 8.35098 21.689 8.43803 21.6019C9.17079 20.8692 9.17079 19.6769 8.43803 18.9441C7.70527 18.2113 6.51297 18.2113 5.78021 18.9441C5.60606 19.1183 5.60606 19.4006 5.78021 19.5747C5.9543 19.7489 6.23667 19.7489 6.41082 19.5747C6.79587 19.1897 7.42231 19.1897 7.80736 19.5747C8.19235 19.9598 8.19235 20.5863 7.80736 20.9713C7.63327 21.1455 7.63333 21.4278 7.80742 21.6019Z"  />
</g>
<defs>
<clipPath id="clip0">
<rect width="30" height="30" fill="white"/>
</clipPath>
</defs>
</svg>
