<svg width="24" height="24" viewBox="0 0 24 24" fill="none" xmlns="http://www.w3.org/2000/svg">
<path d="M5.09791 5.65154C4.61329 5.62846 4.12914 5.74385 3.64453 6.02031C3.13683 6.27415 2.65268 6.73523 2.1916 7.40446C1.33776 8.97323 0.899756 10.7266 0.922833 12.6411C0.899756 14.4171 1.26899 16.0325 1.98391 17.4854C2.51468 18.57 3.2296 19.5849 4.17576 20.5306C6.36714 22.722 8.99699 23.8066 12.0879 23.8066C15.1558 23.8066 17.7625 22.722 19.9539 20.5306C20.8996 19.5849 21.6376 18.57 22.1684 17.4854C22.7218 16.3551 23.0679 15.1325 23.1833 13.8175C23.2064 13.4252 23.2294 13.0334 23.2525 12.6411C23.2294 12.2488 23.2064 11.8569 23.1833 11.4646C22.9294 8.88092 21.8684 6.64338 19.9539 4.752C18.3164 3.09092 16.4014 2.076 14.2331 1.68415C14.1408 1.29185 13.9562 0.969231 13.6562 0.669231C13.4024 0.415385 13.1259 0.230769 12.8028 0.115385C12.5951 0.0461538 12.3644 0 12.1105 0C11.8567 0 11.6028 0.0461538 11.3956 0.115385C11.0956 0.230769 10.8187 0.415385 10.5653 0.669231C10.1268 1.08462 9.9196 1.59185 9.9196 2.19185C9.9196 2.79138 10.1273 3.32215 10.5653 3.76015C10.9802 4.17554 11.4879 4.38323 12.111 4.38323C12.7105 4.38323 13.2182 4.17554 13.6567 3.76015C13.9336 3.46015 14.1182 3.16062 14.2105 2.81446C16.0788 3.20677 17.7168 4.10631 19.1471 5.53662C21.1078 7.49723 22.0996 9.87323 22.0996 12.6415C22.0996 14.4185 21.6847 16.0329 20.877 17.4858C20.4154 18.2935 19.839 19.0311 19.1471 19.7234C17.1861 21.684 14.8331 22.6532 12.0884 22.6532C9.32006 22.6532 6.94406 21.684 4.98345 19.7234C4.29114 19.0311 3.71468 18.2935 3.27622 17.4858C2.46899 16.0329 2.0536 14.4185 2.0536 12.6415C2.0536 10.6809 2.53822 8.95061 3.48391 7.40538C3.89883 6.94385 4.36037 6.75969 4.89114 6.82846C5.39883 6.89769 5.88299 7.17461 6.3676 7.68185L7.88976 9.20446C7.86668 9.20446 7.8436 9.22754 7.8436 9.25061C7.03591 10.2194 6.62099 11.3497 6.64406 12.6646C6.62099 14.1637 7.15176 15.432 8.23591 16.5166C8.62822 16.9089 9.06622 17.2315 9.52776 17.4858C10.2888 17.9238 11.1653 18.1311 12.1114 18.1311C13.0576 18.1311 13.9105 17.9238 14.6951 17.4858C15.1336 17.2315 15.5716 16.9089 15.9639 16.5166C17.0481 15.432 17.5788 14.1637 17.5788 12.6646C17.5788 11.1646 17.0485 9.87323 15.9639 8.81215C14.8798 7.728 13.611 7.19723 12.1114 7.19723C10.7965 7.19723 9.64314 7.61215 8.67437 8.41985C7.98253 7.70492 7.33683 7.08185 6.73683 6.528C6.1133 5.95154 5.58253 5.67461 5.09791 5.65154ZM7.6816 12.6642C7.6816 11.4415 8.12006 10.4031 8.97345 9.54969C9.8273 8.67323 10.8879 8.23477 12.1105 8.23477C13.3331 8.23477 14.3711 8.67323 15.2476 9.54969C16.101 10.4031 16.5394 11.4415 16.5394 12.6642C16.5394 13.8863 16.101 14.9238 15.2476 15.8012C14.3711 16.6551 13.3331 17.0931 12.1105 17.0931C10.8879 17.0931 9.82683 16.6551 8.97345 15.8012C8.12006 14.9243 7.6816 13.8868 7.6816 12.6642Z" fill="white" fill-opacity="0.5"/>
<path d="M10.5656 11.1414C10.1271 11.5563 9.91986 12.064 9.91986 12.664C9.91986 13.2636 10.1276 13.7943 10.5656 14.2323C10.9809 14.6468 11.4882 14.8554 12.1112 14.8554C12.7112 14.8554 13.2185 14.6473 13.6569 14.2323C14.0954 13.7943 14.3026 13.2631 14.3026 12.664C14.3026 12.0636 14.0949 11.5563 13.6569 11.1414C13.2185 10.703 12.7112 10.4727 12.1112 10.4727C11.4882 10.4727 10.9809 10.703 10.5656 11.1414Z" fill="white" fill-opacity="0.5"/>
</svg>
