<svg width="30" height="30" viewBox="0 0 30 30" fill="none" xmlns="http://www.w3.org/2000/svg">
<g clip-path="url(#clip0)">
<path d="M29.3564 4.73118C29.2091 4.56473 29.0566 4.39257 28.9627 4.23378C28.8993 4.12655 28.862 3.90687 28.826 3.69437C28.7505 3.24943 28.6567 2.6957 28.216 2.34093C27.8726 2.06452 27.4091 2.05555 27.0001 2.04759C26.7205 2.04218 26.4313 2.03654 26.2551 1.94826C26.1208 1.88089 25.9643 1.67078 25.8129 1.46755C25.5584 1.12579 25.2698 0.738461 24.8088 0.598264C24.3475 0.458066 23.8923 0.619293 23.4906 0.761511C23.2518 0.846105 23.0046 0.93355 22.8556 0.914718C22.6601 0.890006 22.4166 0.733709 22.1813 0.582581C21.8371 0.361591 21.4474 0.111255 21.0078 0.149631C20.4443 0.199057 20.0582 0.606818 19.7479 0.934501C19.5997 1.09098 19.4465 1.2528 19.3341 1.30656C19.1677 1.38622 18.9452 1.44438 18.7301 1.5007C18.3152 1.60923 17.8177 1.73975 17.5515 2.10652C17.2503 2.05662 16.9558 2.05864 16.673 2.10194C16.5356 1.78994 16.3426 1.51181 16.089 1.29509C15.5823 0.862085 15.0142 0.687313 14.4453 0.789729C13.9492 0.879075 13.5175 1.16814 13.1745 1.48828C13.1673 0.880976 13.1147 0.473749 13.1084 0.426878C13.0754 0.183077 12.8508 0.0119286 12.6071 0.0451364C12.3633 0.0781066 12.1923 0.302542 12.2253 0.546403C12.2295 0.57664 12.6145 3.55935 11.3163 5.58568C10.4991 5.4557 9.67265 5.62079 8.96738 6.05516C8.51839 5.40996 7.86291 4.94879 7.09444 4.74538C5.32444 4.27673 3.50223 5.33576 3.03345 7.10641C2.99805 7.24025 2.97102 7.37664 2.95242 7.5134C2.13607 7.63726 1.37086 8.04882 0.820825 8.69759C0.661677 8.88525 0.684845 9.16642 0.872508 9.32557C1.06023 9.48472 1.3414 9.46155 1.50049 9.27383C2.13969 8.51997 3.16979 8.19627 4.12444 8.44892C4.67074 8.59357 5.14604 8.90878 5.48983 9.34779C4.91543 9.80789 4.50428 10.4368 4.31246 11.1613C4.23708 11.4459 4.19941 11.733 4.19614 12.0168C3.36898 12.1147 2.61815 12.5067 2.0674 13.0987C1.24338 12.5674 0.791478 11.6165 0.909221 10.6344C0.938508 10.3901 0.764211 10.1683 0.519875 10.139C0.275658 10.1096 0.0537175 10.284 0.0244898 10.5283C-0.13252 11.8373 0.461598 13.1054 1.54944 13.825C1.42498 14.0578 1.32524 14.3072 1.25544 14.5709C0.936607 15.7751 1.27671 17.0252 2.14361 17.8971C1.68399 18.5608 1.47191 19.3565 1.54409 20.1706C1.57261 20.4926 1.64526 20.8035 1.7567 21.0976C0.857716 21.7234 0.348846 22.7942 0.446628 23.8971C0.496291 24.4581 0.695657 24.9871 1.02488 25.4378C0.746805 25.9593 0.624726 26.5502 0.678073 27.1525C0.750607 27.9714 1.1377 28.7131 1.76811 29.2409C2.32718 29.7089 3.01813 29.959 3.7386 29.959C3.83044 29.959 3.92294 29.9549 4.01555 29.9467C5.30822 29.8322 6.3663 28.9434 6.70848 27.7096C6.84392 27.7278 6.98115 27.7372 7.1195 27.7372C7.21141 27.7372 7.3039 27.7331 7.39651 27.7249C8.21542 27.6524 8.95705 27.2652 9.48481 26.6349C9.96172 26.0652 10.2115 25.3584 10.2017 24.6233C10.7992 24.4221 11.3318 24.0606 11.7467 23.565C12.3095 22.8928 12.5919 22.0511 12.5507 21.1807C12.582 21.1788 12.6134 21.1772 12.6445 21.1744C14.33 21.0251 15.5866 19.5564 15.4872 17.8782C15.5992 17.8905 15.7118 17.8979 15.825 17.8979C15.9179 17.8979 16.0111 17.8938 16.1043 17.8855C17.8207 17.7335 19.0933 16.2134 18.9412 14.4971C18.8729 13.7266 18.5198 13.0105 17.9592 12.4873C18.3121 12.0916 18.5783 11.6126 18.7203 11.0763C18.9417 10.2397 18.8437 9.35664 18.4442 8.58959C18.3305 8.37133 18.0614 8.28656 17.8432 8.4002C17.625 8.51385 17.5402 8.78296 17.6538 9.00115C17.9506 9.5708 18.0234 10.2268 17.8589 10.8482C17.5604 11.9756 16.5266 12.7643 15.3719 12.7642C15.3697 12.7642 15.3675 12.764 15.3653 12.764C15.2943 12.3728 15.1553 11.9928 14.9495 11.6389C14.4843 10.8388 13.7354 10.2677 12.8406 10.0308C12.8276 10.0274 12.8146 10.0248 12.8016 10.0215C12.8126 9.8566 12.8395 9.69216 12.8822 9.53082C13.0582 8.86618 13.4825 8.30985 14.0768 7.96429C14.6712 7.61872 15.3646 7.52534 16.0292 7.70124C16.2085 7.7487 16.3822 7.81518 16.5455 7.8987C16.7646 8.0108 17.033 7.92401 17.1451 7.70498C17.2572 7.48589 17.1704 7.21749 16.9513 7.1054C16.7315 6.99294 16.498 6.90359 16.2571 6.83985C15.3901 6.61031 14.4871 6.72235 13.7039 7.15274C13.3398 6.57995 12.8145 6.12591 12.199 5.84855C12.7216 4.9432 12.9754 3.92226 13.0902 3.0121C13.0913 3.0102 13.0926 3.00848 13.0937 3.00652C13.2772 2.67646 13.906 1.79232 14.6032 1.66674C14.9081 1.61179 15.2049 1.71183 15.5101 1.97256C15.6256 2.07129 15.7274 2.20792 15.8109 2.3707C14.9053 2.80263 14.2373 3.62226 14.0731 4.31695C13.8978 5.05928 14.2604 5.66302 14.9972 5.85496C15.1066 5.88348 15.2149 5.89744 15.3211 5.89744C15.827 5.89744 16.2849 5.57997 16.5857 5.00356C16.8786 4.44241 17.0004 3.68659 16.9086 2.97194C17.0771 2.95459 17.2496 2.96012 17.4226 2.99C17.5322 3.32166 17.7892 3.61234 18.0117 3.86368C18.1591 4.03014 18.3116 4.20229 18.4055 4.36109C18.4689 4.46831 18.5061 4.688 18.5422 4.90049C18.6176 5.34544 18.7115 5.89916 19.1522 6.25393C19.4956 6.53035 19.9591 6.53932 20.3681 6.54728C20.6478 6.55268 20.9369 6.55833 21.1131 6.64661C21.2475 6.71397 21.4039 6.92409 21.5553 7.12732C21.8099 7.46908 22.0984 7.8564 22.5594 7.9966C23.0207 8.1368 23.4759 7.97557 23.8776 7.83336C24.1165 7.74876 24.3636 7.66132 24.5126 7.68015C24.7081 7.70486 24.9516 7.86116 25.187 8.01229C25.5073 8.21801 25.8674 8.44921 26.2699 8.44921C26.2998 8.44921 26.33 8.44791 26.3604 8.44523C26.9239 8.39581 27.3101 7.98805 27.6203 7.66037C27.7685 7.50389 27.9217 7.34207 28.0341 7.28831C28.2005 7.20864 28.423 7.15049 28.6381 7.09423C29.1458 6.96146 29.7777 6.79619 29.9575 6.20463C30.1373 5.61306 29.7044 5.12409 29.3564 4.73118ZM4.35244 7.58736C4.18902 7.54411 4.02399 7.51351 3.8586 7.49492C3.86906 7.44104 3.88088 7.38734 3.8949 7.33423C4.23785 6.03865 5.57115 5.26376 6.86644 5.60665C7.494 5.77281 8.01933 6.17338 8.34564 6.73464C8.6719 7.29591 8.76018 7.95062 8.59402 8.57824C8.58309 8.61947 8.57085 8.66034 8.55778 8.70092C8.55475 8.70009 8.55184 8.69908 8.54881 8.6983C7.77582 8.49365 6.97378 8.56024 6.25372 8.88222C5.78691 8.24706 5.12234 7.79118 4.35244 7.58736ZM5.17385 11.3892C5.34981 10.7246 5.77408 10.1682 6.36838 9.82268C6.96279 9.47717 7.65612 9.38367 8.32081 9.55963C8.94873 9.72585 9.47453 10.1097 9.82205 10.649C9.22669 11.1117 8.80039 11.7524 8.60418 12.4938C8.538 12.7438 8.50022 12.9989 8.49071 13.255C8.36952 13.2531 8.24756 13.2571 8.12507 13.2679C7.38256 13.3337 6.6897 13.6343 6.13765 14.1226C5.28654 13.499 4.90034 12.4225 5.17385 11.3892ZM8.65812 19.2834C8.57637 19.2907 8.49422 19.2936 8.41235 19.2931C8.27721 18.4773 7.86071 17.7443 7.21996 17.2078C6.81903 16.8722 6.35774 16.6362 5.86604 16.509C5.96709 15.2809 6.95667 14.266 8.20378 14.1555C8.88814 14.0948 9.5561 14.3044 10.0833 14.7458C10.6104 15.1872 10.9342 15.8074 10.9949 16.4922C11.1202 17.906 10.0719 19.1581 8.65812 19.2834ZM5.22274 22.4286C4.53767 22.4892 3.87036 22.2797 3.34326 21.8383C2.81609 21.3969 2.49233 20.7768 2.43161 20.0919C2.37096 19.407 2.5806 18.7395 3.02199 18.2124C3.46331 17.6852 4.08357 17.3615 4.7684 17.3008C4.84593 17.2939 4.92309 17.2905 4.99996 17.2905C5.60246 17.2905 6.18036 17.4997 6.64782 17.8911C7.17505 18.3324 7.49875 18.9527 7.55946 19.6375C7.62012 20.3224 7.41047 20.9899 6.96909 21.5171C6.52788 22.0442 5.90763 22.3679 5.22274 22.4286ZM2.11682 14.7988C2.38944 13.7692 3.26442 13.0236 4.30088 12.9009C4.48806 13.642 4.91965 14.3127 5.54983 14.7955C5.22945 15.2747 5.03442 15.8251 4.98179 16.4003C4.88484 16.4008 4.78747 16.4045 4.68981 16.4131C3.9606 16.4777 3.2864 16.7646 2.74213 17.2326C2.12443 16.5866 1.88443 15.6766 2.11682 14.7988ZM2.18258 21.89C2.34975 22.1213 2.54668 22.3335 2.77124 22.5216C3.23953 22.9136 3.78999 23.1696 4.37513 23.2751C4.28478 23.4538 4.2126 23.6402 4.15913 23.8322C3.93232 23.8015 3.70201 23.7946 3.47217 23.815C2.75751 23.8783 2.10173 24.1814 1.5956 24.6764C1.45112 24.4133 1.36106 24.1228 1.33415 23.8184C1.26779 23.0692 1.59554 22.3412 2.18258 21.89ZM3.93684 29.059C3.35508 29.1105 2.78799 28.9325 2.34007 28.5575C1.89221 28.1826 1.61716 27.6556 1.56566 27.0738C1.51409 26.492 1.69219 25.9249 2.0671 25.4771C2.44213 25.0292 2.96906 24.7541 3.55088 24.7026C3.71751 24.6878 3.8842 24.6931 4.04816 24.7159C4.04959 24.7873 4.05262 24.8589 4.05898 24.9306C4.13151 25.7495 4.5186 26.4912 5.14901 27.019C5.36555 27.2002 5.60198 27.3484 5.85214 27.4625C5.61173 28.3304 4.84296 28.9788 3.93684 29.059ZM8.80146 26.0627C8.42649 26.5106 7.89956 26.7856 7.31774 26.8372C6.7358 26.8887 6.16883 26.7107 5.72091 26.3357C5.27305 25.9607 4.998 25.4338 4.9465 24.852C4.89684 24.2916 5.06127 23.744 5.40909 23.3041C5.65682 23.2745 5.89794 23.2199 6.12891 23.1404C6.75588 24.1678 7.89012 24.8054 9.09457 24.8054C9.16526 24.8054 9.23625 24.8023 9.30736 24.7979C9.27897 25.2606 9.10467 25.7007 8.80146 26.0627ZM11.0635 22.9929C10.6221 23.5201 10.0019 23.8438 9.31705 23.9045C8.36614 23.9886 7.44315 23.5287 6.92982 22.7406C7.19667 22.5606 7.44018 22.3427 7.65255 22.0891C8.11111 21.5414 8.38289 20.8809 8.44598 20.1843C8.54299 20.1838 8.64024 20.1796 8.73689 20.171C9.49194 20.1042 10.1689 19.7979 10.7012 19.3346C11.2423 19.7708 11.592 20.4144 11.6539 21.1134C11.7145 21.7982 11.5048 22.4657 11.0635 22.9929ZM12.566 20.2868C12.5079 20.2919 12.4496 20.2944 12.3914 20.295C12.1896 19.6616 11.8082 19.0949 11.2936 18.669C11.6532 18.1419 11.8693 17.5136 11.893 16.8445C11.9139 16.8449 11.9348 16.8463 11.9556 16.8463C12.6118 16.8463 13.2381 16.6574 13.7735 16.3257C14.2439 16.7055 14.5398 17.2553 14.5938 17.8645C14.7025 19.0915 13.7928 20.178 12.566 20.2868ZM16.0257 16.9979C15.7756 17.02 15.5271 17.0003 15.2863 16.9401C15.1133 16.4882 14.8366 16.083 14.4751 15.7541C14.8616 15.3449 15.1522 14.8387 15.3035 14.2672C15.3573 14.0643 15.3913 13.8594 15.408 13.6544C16.0876 13.647 16.7347 13.4372 17.28 13.0756C17.722 13.4541 18.0019 13.993 18.0536 14.5757C18.1623 15.8026 17.2526 16.8892 16.0257 16.9979ZM14.1792 12.0868C14.5247 12.6812 14.6182 13.3745 14.4422 14.0392C14.1307 15.2162 13.0239 16.0204 11.8105 15.9511C11.8102 15.9511 11.8099 15.9511 11.8095 15.9511C11.6436 15.2145 11.2441 14.5556 10.6553 14.0626C10.2757 13.7448 9.84184 13.5171 9.37942 13.3858C9.37918 13.1629 9.40794 12.9399 9.46562 12.7218C9.64158 12.0572 10.0659 11.5008 10.6602 11.1553C11.2546 10.8096 11.948 10.7163 12.6126 10.8922C13.2773 11.0681 13.8336 11.4924 14.1792 12.0868ZM12.9824 7.67807C12.5208 8.11541 12.1877 8.67264 12.0208 9.30282C11.9676 9.50408 11.9329 9.70915 11.9163 9.91517C11.4614 9.91939 11.0119 10.014 10.5893 10.196C10.286 9.71753 9.87 9.32123 9.38281 9.04173C9.4096 8.96408 9.43431 8.88567 9.45534 8.80624C9.62869 8.15147 9.59875 7.4752 9.37681 6.85055C9.98679 6.45318 10.7266 6.3317 11.4377 6.51989C12.0829 6.69063 12.6385 7.10926 12.9824 7.67807ZM15.7958 4.59117C15.6278 4.91291 15.4348 5.04805 15.2219 4.99251C14.9935 4.93305 14.8668 4.83348 14.9405 4.52172C15.0449 4.07956 15.4753 3.56249 16.0478 3.24871C16.084 3.69301 16.0133 4.17431 15.7958 4.59117ZM29.1049 5.94538C29.0701 6.06009 28.6744 6.16358 28.4126 6.23207C28.157 6.29896 27.8927 6.36805 27.6494 6.48449C27.3882 6.60948 27.1773 6.83225 26.9733 7.04759C26.7452 7.28849 26.5093 7.53757 26.2826 7.55747C26.1466 7.569 25.8926 7.40629 25.6684 7.26235C25.3645 7.06714 25.02 6.84591 24.6243 6.79595C24.5722 6.78936 24.5204 6.78633 24.4687 6.78633C24.1645 6.78633 23.8681 6.89124 23.5802 6.99324C23.2946 7.09435 22.9992 7.19884 22.8187 7.14395C22.638 7.089 22.451 6.83783 22.2701 6.59492C22.0566 6.30835 21.8359 6.01203 21.5125 5.84991C21.156 5.67122 20.7466 5.66326 20.3854 5.65625C20.1191 5.65108 19.8173 5.6452 19.711 5.55972C19.5336 5.41685 19.4763 5.07859 19.4208 4.7515C19.3712 4.45905 19.3199 4.15661 19.1725 3.9074C19.0352 3.67531 18.8541 3.47077 18.6789 3.27295C18.6666 3.25911 18.6539 3.24467 18.6409 3.22994L24.0858 4.88528C24.1291 4.89841 24.1727 4.90465 24.2156 4.90465C24.4066 4.90465 24.5833 4.78085 24.6417 4.58855C24.7133 4.35313 24.5805 4.10428 24.3451 4.03269L18.9002 2.37735C18.9192 2.37236 18.9378 2.36749 18.9557 2.36279C19.2113 2.29596 19.4757 2.22681 19.7189 2.11038C19.9801 1.98539 20.191 1.76268 20.395 1.54727C20.6231 1.30638 20.859 1.05729 21.0858 1.03739C21.2213 1.02539 21.4757 1.18852 21.6998 1.33252C22.0038 1.52773 22.3484 1.74895 22.7441 1.79891C23.1029 1.84412 23.4512 1.72091 23.7881 1.60163C24.0737 1.50052 24.3689 1.39602 24.5496 1.45092C24.7303 1.50587 24.9174 1.75703 25.0983 1.99988C25.3118 2.28646 25.5325 2.58283 25.8559 2.74495C26.2124 2.92364 26.6218 2.9316 26.9829 2.93861C27.2492 2.94378 27.5511 2.94966 27.6573 3.03515C27.8347 3.17802 27.8921 3.51628 27.9475 3.84342C27.9971 4.13588 28.0484 4.43825 28.1959 4.68752C28.3331 4.91962 28.5142 5.12415 28.6894 5.32197C28.8687 5.52449 29.1398 5.83073 29.1049 5.94538Z"  />
</g>
<defs>
<clipPath id="clip0">
<rect width="30" height="30"  />
</clipPath>
</defs>
</svg>
