<svg width="30" height="30" viewBox="0 0 30 30" fill="none" xmlns="http://www.w3.org/2000/svg">
<g clip-path="url(#clip0)">
<path d="M29.5983 16.7035C29.3566 16.6808 29.1426 16.8613 29.1213 17.1034C28.3547 25.8228 18.1804 30.4431 11.1264 24.9906L12.3474 23.7695C21.3598 26.4007 28.2451 19.5095 25.6162 10.5008L26.8382 9.27875C28.1446 10.9699 28.9327 12.9859 29.1214 15.1265C29.1428 15.3688 29.3572 15.5486 29.5985 15.5264C29.8407 15.505 30.0197 15.2915 29.9984 15.0493C29.786 12.6404 28.8701 10.378 27.3495 8.50655C27.1112 8.21334 26.6738 8.1984 26.4126 8.45949L24.807 10.0651C24.6738 10.1984 24.6076 10.3825 24.6253 10.5705C24.7713 12.1247 24.5935 13.6644 24.1232 15.1054C23.8191 11.4526 21.8995 8.26654 19.0724 6.25813C19.6404 5.15762 19.7489 3.83897 19.4044 2.24275C19.3477 1.97943 19.1195 1.79527 18.8496 1.79492C18.8493 1.79492 18.8491 1.79492 18.8488 1.79492C18.5803 1.79492 18.353 1.97768 18.2957 2.23959C18.1617 2.85324 17.7336 3.79367 16.4729 4.85504C15.4606 4.46035 14.3921 4.20149 13.293 4.09215C13.0508 4.06754 12.8355 4.24473 12.8115 4.4866C12.7874 4.72848 12.964 4.94404 13.2059 4.96813C18.8387 5.52846 23.2856 10.2297 23.2856 16.1148C23.2856 16.4441 23.2707 16.7792 23.2413 17.1124C22.443 18.5319 21.3248 19.7801 19.9934 20.7351C16.511 23.2292 13.1262 22.7621 12.3483 22.7745C12.1828 22.7771 12.0261 22.846 11.9094 22.9627C10.1488 24.7232 10.2287 24.6177 10.1643 24.7853C10.1119 24.9217 10.1092 25.0681 10.1528 25.2044C10.2162 25.4023 10.2925 25.4861 10.9763 25.9743C11.6964 26.4866 12.4643 26.9146 13.2746 27.2545C6.61816 27.96 0.880488 22.7233 0.880488 16.1149C0.880488 13.5482 1.76297 11.1603 3.24615 9.25402C5.15244 8.93557 7.23299 9.23399 9.27387 10.1205C9.33105 10.1454 9.39041 10.1571 9.449 10.1571C9.61898 10.1571 9.78088 10.058 9.85295 9.89217C9.9498 9.66922 9.84756 9.40994 9.62461 9.31309C7.77779 8.51071 5.89254 8.15733 4.1066 8.27059C4.65779 7.70914 5.26746 7.20494 5.92588 6.76813C5.95336 6.76789 5.98113 6.76537 6.00897 6.75981C9.43061 6.08416 13.3448 7.42291 16.4799 10.3411C16.5647 10.42 16.6723 10.4591 16.7797 10.4591C16.8976 10.4591 17.0153 10.412 17.102 10.3188C17.2676 10.1408 17.2576 9.86235 17.0797 9.69664C14.3584 7.16363 11.0656 5.75147 7.9398 5.70916C8.96912 5.29608 10.0738 5.03147 11.2286 4.9444C11.4711 4.92611 11.6527 4.71482 11.6344 4.47242C11.6162 4.22996 11.4052 4.04768 11.1625 4.0666C4.88402 4.54004 0 9.78577 0 16.1149C0 23.9257 7.35984 29.7518 15.0226 27.8358C22.2632 29.6473 29.3514 24.5379 29.9982 17.1805C30.0195 16.9384 29.8405 16.7248 29.5983 16.7035ZM18.3312 5.77168C17.9333 5.53098 17.5258 5.32074 17.3624 5.24451C18.0046 4.65154 18.4292 4.08588 18.7083 3.58238C18.7587 4.41928 18.6336 5.14391 18.3312 5.77168ZM25.295 14.1304C25.3676 19.667 21.4395 23.5224 15.9781 23.4473C20.6571 22.4605 24.3155 18.7759 25.295 14.1304Z"  />
</g>
<defs>
<clipPath id="clip0">
<rect width="30" height="30" fill="white"/>
</clipPath>
</defs>
</svg>
