<svg width="30" height="30" viewBox="0 0 30 30" fill="none" xmlns="http://www.w3.org/2000/svg">
<g clip-path="url(#clip0)">
<path d="M6.05594 8.48893C6.3102 6.92288 6.97271 5.44688 7.97198 4.22047C8.95056 3.01954 10.2277 2.08368 11.6651 1.51417C11.8908 1.42483 12.0012 1.16933 11.9118 0.943782C11.8224 0.718119 11.567 0.607562 11.3414 0.697083C9.76463 1.32184 8.36392 2.34828 7.29067 3.66539C6.19421 5.01092 5.46729 6.63021 5.18839 8.34806L3.54558 18.4667C3.00497 21.7967 4.17411 25.143 6.67295 27.4179C6.75721 27.4946 6.8631 27.5324 6.96869 27.5324C7.08805 27.5324 7.20706 27.4841 7.29375 27.3888C7.45713 27.2094 7.44407 26.9314 7.26461 26.768C4.98624 24.6939 3.92032 21.6431 4.41313 18.6075L6.05594 8.48893Z"  />
<path d="M13.4226 1.01634C13.9406 0.925106 14.4715 0.878898 15.0003 0.878898C17.1497 0.878898 19.235 1.64594 20.8722 3.03868C22.5093 4.43142 23.6006 6.3669 23.945 8.48857L25.2795 16.7082C25.3145 16.9239 25.501 17.0772 25.7127 17.0772C25.7361 17.0772 25.7598 17.0753 25.7837 17.0715C26.0233 17.0326 26.1859 16.8068 26.147 16.5673L24.8126 8.3477C24.4347 6.02028 23.2376 3.89713 21.4417 2.36931C19.6458 0.841436 17.3583 0 15.0003 0C14.4205 0 13.8384 0.0506989 13.2703 0.150678C13.0312 0.192809 12.8715 0.4206 12.9136 0.659617C12.9557 0.898693 13.1836 1.05835 13.4226 1.01634Z"  />
<path d="M26.4556 18.4667C26.4168 18.2272 26.1916 18.0646 25.9514 18.1034C25.7118 18.1423 25.5492 18.368 25.588 18.6076C26.0146 21.2348 25.2701 23.9044 23.5454 25.9316C21.8207 27.9589 19.3049 29.1216 16.6433 29.1216H13.3577C11.7225 29.1216 10.1231 28.6841 8.73238 27.8563C8.52386 27.7322 8.25405 27.8006 8.13003 28.0091C8.00588 28.2177 8.0743 28.4874 8.28283 28.6115C9.80941 29.5202 11.5643 30.0005 13.3576 30.0005H16.6432C19.563 30.0005 22.3227 28.725 24.2147 26.5011C26.1068 24.2772 26.9235 21.3488 26.4556 18.4667Z"  />
<path d="M13.3669 16.8516C13.3669 17.0942 13.5637 17.291 13.8064 17.291C14.0491 17.291 14.2458 17.0942 14.2458 16.8516C14.2458 16.6089 14.0491 16.4121 13.8064 16.4121C13.5637 16.4122 13.3669 16.6089 13.3669 16.8516Z"  />
<path d="M20.7159 21.3984C20.7159 21.6411 20.9127 21.8379 21.1554 21.8379C21.3981 21.8379 21.5948 21.6411 21.5948 21.3984C21.5948 21.1558 21.3981 20.959 21.1554 20.959C20.9127 20.959 20.7159 21.1558 20.7159 21.3984Z"  />
<path d="M18.6701 12.5117C18.6701 12.7544 18.8669 12.9512 19.1096 12.9512C19.3522 12.9512 19.549 12.7544 19.549 12.5117C19.549 12.269 19.3522 12.0723 19.1096 12.0723C18.8668 12.0723 18.6701 12.269 18.6701 12.5117Z"  />
<path d="M9.2851 22.8691C9.2851 23.1118 9.48186 23.3086 9.72455 23.3086C9.96723 23.3086 10.164 23.1118 10.164 22.8691C10.164 22.6265 9.96723 22.4297 9.72455 22.4297C9.48186 22.4297 9.2851 22.6265 9.2851 22.8691Z"  />
<path d="M12.4588 9.86522C12.7015 9.86522 12.8982 9.66845 12.8982 9.42577C12.8982 9.18309 12.7015 8.98633 12.4588 8.98633C12.2161 8.98633 12.0193 9.18309 12.0193 9.42577C12.0193 9.66857 12.2161 9.86522 12.4588 9.86522Z"  />
</g>
<defs>
<clipPath id="clip0">
<rect width="30" height="30" fill="white"/>
</clipPath>
</defs>
</svg>
