<svg width="48" height="48" viewBox="0 0 48 48" fill="none" xmlns="http://www.w3.org/2000/svg">
<path d="M20.8185 44.7506L20.4654 44.3966L20.8185 44.7506ZM18.6574 44.2717L19.0104 43.9177L18.6574 44.2717ZM4.73011 30.3836L4.37705 30.7377L4.73011 30.3836ZM4.24985 28.2286L4.60291 28.5826L4.6035 28.5821L4.24985 28.2286ZM28.1823 4.28357L27.8293 3.92952L27.8287 3.93011L28.1823 4.28357ZM29.6231 4.04412L29.568 4.54108L29.5843 4.54289L29.6007 4.54362L29.6231 4.04412ZM42.1096 4.60284L42.0872 5.10234L42.0984 5.10284H42.1096V4.60284ZM44.4308 6.91752L44.9303 6.89504L44.93 6.88971L44.4308 6.91752ZM44.9911 19.3689H45.4911V19.3577L45.4906 19.3465L44.9911 19.3689ZM44.751 20.8056L45.104 21.1597L44.751 20.8056ZM36.3466 8.2533C36.0705 8.2533 35.8466 8.47715 35.8466 8.7533C35.8466 9.02945 36.0705 9.2533 36.3466 9.2533V8.2533ZM33.1389 11.8651C33.2265 11.6032 33.0851 11.3199 32.8232 11.2323C32.5613 11.1448 32.278 11.2861 32.1905 11.548L33.1389 11.8651ZM19.4508 10.9007C19.7111 10.993 19.9969 10.8568 20.0891 10.5966C20.1814 10.3363 20.0452 10.0505 19.785 9.9582L19.4508 10.9007ZM13.8549 6.91752L14.3372 7.04943L14.3425 7.02986L14.3463 7.00992L13.8549 6.91752ZM37.2271 12.5047L37.7173 12.603L37.2271 12.5047ZM35.3103 12.8087C35.0373 12.8505 34.85 13.1057 34.8919 13.3787C34.9338 13.6516 35.189 13.839 35.4619 13.7971L35.3103 12.8087ZM13.5562 28.67C13.3607 28.865 13.3603 29.1816 13.5552 29.3771C13.7502 29.5727 14.0668 29.5731 14.2623 29.3781L13.5562 28.67ZM26.0912 17.5825C26.2868 17.3875 26.2872 17.071 26.0922 16.8754C25.8972 16.6799 25.5807 16.6794 25.3851 16.8744L26.0912 17.5825ZM16.6899 31.4556C16.4944 31.6506 16.4939 31.9672 16.6889 32.1627C16.8839 32.3583 17.2005 32.3587 17.396 32.1637L16.6899 31.4556ZM29.2249 20.3681C29.4204 20.1731 29.4209 19.8565 29.2259 19.661C29.0309 19.4655 28.7143 19.465 28.5188 19.66L29.2249 20.3681ZM32.5847 30.6231L33.0316 30.399L32.5847 29.5076L32.1377 30.399L32.5847 30.6231ZM33.9454 33.3369L33.4984 33.561L33.6173 33.7981L33.8803 33.8326L33.9454 33.3369ZM36.987 33.7359L37.34 34.09L38.0596 33.3724L37.052 33.2402L36.987 33.7359ZM34.8258 35.891L34.4728 35.5369L34.2921 35.7171L34.332 35.9692L34.8258 35.891ZM35.3061 38.924L35.0727 39.3662L35.9562 39.8326L35.7999 38.8458L35.3061 38.924ZM32.5847 37.4873L32.8181 37.0452L32.5847 36.9219L32.3512 37.0452L32.5847 37.4873ZM29.8632 38.924L29.3716 38.8332L29.1841 39.848L30.0967 39.3662L29.8632 38.924ZM30.4235 35.891L30.9152 35.9818L30.9641 35.7171L30.7701 35.5306L30.4235 35.891ZM28.1824 33.7359L28.1173 33.2402L27.0861 33.3755L27.8358 34.0964L28.1824 33.7359ZM31.224 33.3369L31.289 33.8326L31.552 33.7981L31.6709 33.561L31.224 33.3369ZM25.2679 39.6076L20.4654 44.3966L21.1716 45.1047L25.9741 40.3157L25.2679 39.6076ZM20.4654 44.3966C20.3881 44.4738 20.228 44.5392 19.9401 44.4729C19.656 44.4075 19.3161 44.2225 19.0104 43.9177L18.3043 44.6258C18.7191 45.0394 19.2196 45.3332 19.7159 45.4474C20.2083 45.5608 20.7687 45.5064 21.1716 45.1047L20.4654 44.3966ZM19.0104 43.9177L5.08316 30.0296L4.37705 30.7377L18.3043 44.6258L19.0104 43.9177ZM5.08316 30.0296C4.77748 29.7248 4.59226 29.3861 4.52687 29.1036C4.4607 28.8176 4.52597 28.6594 4.60291 28.5826L3.8968 27.8745C3.49349 28.2767 3.4387 28.8368 3.55262 29.3291C3.66733 29.8247 3.96235 30.3242 4.37705 30.7377L5.08316 30.0296ZM4.6035 28.5821L28.536 4.63703L27.8287 3.93011L3.89621 27.8751L4.6035 28.5821ZM28.5354 4.63762C28.6638 4.50959 28.8141 4.45755 29.568 4.54108L29.6782 3.54716C28.9913 3.47107 28.3412 3.41902 27.8293 3.92952L28.5354 4.63762ZM29.6007 4.54362L42.0872 5.10234L42.1319 4.10334L29.6454 3.54462L29.6007 4.54362ZM42.1096 5.10284C42.7714 5.10284 43.1861 5.29093 43.4485 5.5663C43.7188 5.85006 43.8955 6.29775 43.9316 6.94534L44.93 6.88971C44.8861 6.1006 44.6626 5.39095 44.1725 4.87653C43.6744 4.35374 42.9685 4.10284 42.1096 4.10284V5.10284ZM43.9313 6.94L44.4916 19.3914L45.4906 19.3465L44.9303 6.89505L43.9313 6.94ZM44.4911 19.3689C44.4911 19.7827 44.5107 19.9906 44.493 20.1935C44.4796 20.3477 44.4488 20.4008 44.3979 20.4516L45.104 21.1597C45.3733 20.8912 45.4626 20.5851 45.4892 20.2804C45.5115 20.0243 45.4911 19.6735 45.4911 19.3689H44.4911ZM44.3979 20.4516L36.6339 28.1938L37.34 28.9019L45.104 21.1597L44.3979 20.4516ZM36.3466 9.2533C38.1529 9.2533 39.6086 10.7069 39.6086 12.5047H40.6086C40.6086 10.152 38.7025 8.2533 36.3466 8.2533V9.2533ZM39.6086 12.5047C39.6086 14.3025 38.1529 15.7561 36.3466 15.7561V16.7561C38.7025 16.7561 40.6086 14.8574 40.6086 12.5047H39.6086ZM36.3466 15.7561C34.5403 15.7561 33.0847 14.3025 33.0847 12.5047H32.0847C32.0847 14.8574 33.9907 16.7561 36.3466 16.7561V15.7561ZM33.0847 12.5047C33.0847 12.2419 33.0898 12.0118 33.1389 11.8651L32.1905 11.548C32.0795 11.8802 32.0847 12.2887 32.0847 12.5047H33.0847ZM19.785 9.9582C17.9977 9.3245 16.5317 8.67882 15.5517 8.0944C15.0583 7.80017 14.716 7.53767 14.5164 7.31954C14.3004 7.08349 14.3477 7.01105 14.3372 7.04943L13.3726 6.78562C13.242 7.26299 13.4994 7.6894 13.7786 7.9946C14.0743 8.31773 14.5124 8.6389 15.0395 8.95327C16.1006 9.58605 17.6362 10.2574 19.4508 10.9007L19.785 9.9582ZM14.3463 7.00992C14.3407 7.03956 14.3269 7.0071 14.4423 6.93748C14.5598 6.86659 14.7578 6.79212 15.0561 6.73159C15.6491 6.61128 16.5151 6.5697 17.6043 6.61885C19.7738 6.71674 22.7214 7.16891 25.9003 7.96139L26.1422 6.99109C22.9177 6.18723 19.9022 5.72151 17.6494 5.61986C16.5274 5.56924 15.5675 5.60747 14.8573 5.75156C14.504 5.82323 14.1811 5.9271 13.9256 6.08131C13.668 6.2368 13.4291 6.47622 13.3635 6.82513L14.3463 7.00992ZM25.9003 7.96139C29.0826 8.75473 31.9145 9.70396 33.9114 10.5966C34.9134 11.0445 35.6828 11.4684 36.1786 11.8389C36.428 12.0253 36.5849 12.1811 36.6699 12.3005C36.7575 12.4234 36.7285 12.4478 36.7368 12.4064L37.7173 12.603C37.7856 12.2623 37.6516 11.955 37.4843 11.7202C37.3146 11.482 37.0668 11.2543 36.7772 11.0379C36.195 10.6028 35.3485 10.1437 34.3195 9.68365C32.2542 8.76045 29.3632 7.79408 26.1422 6.99109L25.9003 7.96139ZM36.7368 12.4064C36.7513 12.334 36.7834 12.4069 36.479 12.5302C36.2134 12.6378 35.819 12.7306 35.3103 12.8087L35.4619 13.7971C35.9937 13.7155 36.4798 13.6088 36.8545 13.457C37.1904 13.3209 37.6227 13.0745 37.7173 12.603L36.7368 12.4064ZM14.2623 29.3781L26.0912 17.5825L25.3851 16.8744L13.5562 28.67L14.2623 29.3781ZM17.396 32.1637L29.2249 20.3681L28.5188 19.66L16.6899 31.4556L17.396 32.1637ZM32.5846 44.5323C37.5895 44.5323 41.6491 40.4861 41.6491 35.4919H40.6491C40.6491 39.9312 37.0398 43.5323 32.5846 43.5323V44.5323ZM41.6491 35.4919C41.6491 30.4977 37.5895 26.4515 32.5846 26.4515V27.4515C37.0398 27.4515 40.6491 31.0527 40.6491 35.4919H41.6491ZM32.5846 26.4515C27.5798 26.4515 23.5202 30.4977 23.5202 35.4919H24.5202C24.5202 31.0527 28.1294 27.4515 32.5846 27.4515V26.4515ZM23.5202 35.4919C23.5202 40.4861 27.5798 44.5323 32.5846 44.5323V43.5323C28.1294 43.5323 24.5202 39.9312 24.5202 35.4919H23.5202ZM32.1377 30.8472L33.4984 33.561L34.3923 33.1128L33.0316 30.399L32.1377 30.8472ZM33.8803 33.8326L36.9219 34.2317L37.052 33.2402L34.0104 32.8411L33.8803 33.8326ZM36.6339 33.3819L34.4728 35.5369L35.1789 36.245L37.34 34.09L36.6339 33.3819ZM34.332 35.9692L34.8122 39.0022L35.7999 38.8458L35.3197 35.8128L34.332 35.9692ZM35.5395 38.4819L32.8181 37.0452L32.3512 37.9295L35.0727 39.3662L35.5395 38.4819ZM32.3512 37.0452L29.6298 38.4819L30.0967 39.3662L32.8181 37.9295L32.3512 37.0452ZM30.3549 39.0149L30.9152 35.9818L29.9319 35.8002L29.3716 38.8332L30.3549 39.0149ZM30.7701 35.5306L28.5289 33.3755L27.8358 34.0964L30.077 36.2514L30.7701 35.5306ZM28.2474 34.2317L31.289 33.8326L31.1589 32.8411L28.1173 33.2402L28.2474 34.2317ZM31.6709 33.561L33.0316 30.8472L32.1377 30.399L30.777 33.1128L31.6709 33.561Z" fill="#98368F"/>
</svg>
