<svg width="48" height="48" viewBox="0 0 48 48" fill="none" xmlns="http://www.w3.org/2000/svg">
<g clip-path="url(#clip0)">
<path d="M34.9969 28.068C34.9969 27.6974 34.9018 27.3362 34.7117 27.0225L34.5406 26.7374L34.8163 26.5663C35.4341 26.1861 35.8048 25.5303 35.8048 24.808C35.8048 24.3898 35.6812 23.9906 35.4436 23.6484L35.2535 23.3728L35.5291 23.1827C36.204 22.7264 36.6127 21.9566 36.6127 21.1487C36.6127 19.7895 35.5101 18.687 34.151 18.687H28.2771L28.7713 18.1357C29.9879 16.7765 30.7578 15.2273 30.9099 13.8871C30.9954 13.1077 30.7578 12.3283 30.254 11.7581C29.7978 11.2448 29.18 10.9597 28.5052 10.9502H28.4862C27.8304 10.9502 27.2126 11.2068 26.7468 11.663C26.2811 12.1192 26.0245 12.737 26.0245 13.3929V13.4499C25.9865 13.697 25.6538 14.3243 24.9124 15.0277C24.3136 15.5979 23.2776 16.3773 21.7569 16.8716C21.2341 17.0427 20.7589 17.3563 20.3407 17.803C20.1126 18.0501 19.7324 18.4208 19.2572 18.801L19.0861 18.9341L18.896 18.8295C18.7154 18.7345 18.5253 18.687 18.3162 18.687H13.4403C12.756 18.687 12.1952 19.2477 12.1952 19.9321V32.9344C12.1952 33.6188 12.756 34.1795 13.4403 34.1795H18.3162C18.7629 34.1795 19.1811 33.9324 19.3997 33.5332L19.4948 33.3621H32.136C33.267 33.3621 34.189 32.4402 34.189 31.3091C34.189 30.9385 34.0939 30.5773 33.9038 30.2636L33.7328 29.9785L34.0084 29.8074C34.6262 29.4367 34.9969 28.7809 34.9969 28.068ZM32.9439 29.2561H32.1265C31.8889 29.2561 31.6988 29.4462 31.6988 29.6838C31.6988 29.9215 31.8889 30.1116 32.1265 30.1116C32.7823 30.1116 33.3241 30.6438 33.3241 31.3091C33.3241 31.9745 32.7918 32.5067 32.1265 32.5067H19.5518V24.808C19.5518 24.5703 19.3617 24.3802 19.1241 24.3802C18.8865 24.3802 18.6964 24.5703 18.6964 24.808V32.9344C18.6964 33.1435 18.5253 33.3146 18.3162 33.3146H13.4403C13.2312 33.3146 13.0601 33.1435 13.0601 32.9344V19.9321C13.0601 19.723 13.2312 19.5519 13.4403 19.5519H18.3162C18.5253 19.5519 18.6964 19.723 18.6964 19.9321V21.5574C18.6964 21.795 18.8865 21.9851 19.1241 21.9851C19.3617 21.9851 19.5518 21.795 19.5518 21.5574V19.9321C19.5518 19.9036 19.5518 19.8845 19.5518 19.8655L19.5423 19.6754L19.6849 19.5709C20.2552 19.1337 20.7019 18.6965 20.968 18.4018C21.2912 18.0597 21.6428 17.822 22.023 17.6985C23.7529 17.1377 24.9219 16.2348 25.5873 15.5694C26.3857 14.7901 26.8799 13.9631 26.8799 13.4119C26.8799 12.9842 27.051 12.585 27.3456 12.2808C27.6498 11.9862 28.049 11.8151 28.4862 11.8151C29.0375 11.8246 29.3986 12.1002 29.6077 12.3283C29.9499 12.7085 30.1115 13.2598 30.0545 13.7921C29.8834 15.3888 28.6192 17.3468 26.8514 18.782C26.7088 18.8961 26.6518 19.0862 26.7183 19.2572C26.7753 19.4283 26.9369 19.5424 27.127 19.5424H34.1605C35.0444 19.5424 35.7667 20.2647 35.7667 21.1487C35.7667 22.0326 35.0444 22.755 34.1605 22.755H33.7518C33.5141 22.755 33.3241 22.945 33.3241 23.1827C33.3241 23.4203 33.5141 23.6104 33.7518 23.6104C34.4076 23.6104 34.9493 24.1426 34.9493 24.808C34.9493 25.4638 34.4171 26.0055 33.7518 26.0055H32.9344C32.6967 26.0055 32.5067 26.1956 32.5067 26.4333C32.5067 26.6709 32.6967 26.861 32.9344 26.861C33.5902 26.861 34.132 27.3932 34.132 28.0585C34.1415 28.7239 33.5997 29.2561 32.9439 29.2561Z" fill="#98368F"/>
<path d="M15.4363 30.5013C15.4363 30.7389 15.6264 30.9385 15.8735 30.9385C16.1206 30.9385 16.3107 30.7484 16.3107 30.5013C16.3107 30.3872 16.2632 30.2827 16.1871 30.1971C16.1016 30.1116 15.997 30.0736 15.883 30.0736C15.6359 30.0641 15.4363 30.2637 15.4363 30.5013Z" fill="#98368F"/>
<path d="M47.9707 27.5833L46.6211 24L47.9707 20.4167C48.0278 20.2742 47.9993 20.1126 47.9042 19.9985L45.509 17.0141L45.6896 13.1932C45.6991 13.0411 45.6231 12.8986 45.4995 12.813L42.2965 10.7125L41.289 7.01518C41.2509 6.87261 41.1369 6.75856 40.9848 6.71103L37.2875 5.70354L35.187 2.50047C35.1014 2.37691 34.9589 2.30087 34.8068 2.31038L30.9859 2.49097L28.0015 0.0957929C27.8874 0.000746317 27.7258 -0.0277676 27.5833 0.0292603L24 1.37892L20.4167 0.0292603C20.2742 -0.0277676 20.1126 0.000746317 19.9985 0.0957929L17.0141 2.49097L13.1932 2.31038C13.0411 2.30087 12.8986 2.37691 12.813 2.50047L10.7125 5.70354L7.01518 6.71103C6.87261 6.74905 6.75856 6.86311 6.71103 7.01518L5.70354 10.7125L2.50047 12.813C2.37691 12.8986 2.30087 13.0411 2.31038 13.1932L2.49097 17.0141L0.0957929 19.9985C0.000746317 20.1126 -0.0277676 20.2742 0.0292603 20.4167L1.37892 24L0.0292603 27.5833C-0.0277676 27.7258 0.000746317 27.8874 0.0957929 28.0015L2.49097 30.9859L2.31038 34.8068C2.30087 34.9589 2.37691 35.1014 2.50047 35.187L5.70354 37.2875L6.71103 40.9848C6.74905 41.1274 6.86311 41.2414 7.01518 41.289L10.7125 42.2965L12.813 45.4995C12.8986 45.6231 13.0411 45.6991 13.1932 45.6896L17.0141 45.509L19.9985 47.9042C20.1126 47.9993 20.2742 48.0278 20.4167 47.9707L24 46.6211L27.5833 47.9707C27.7258 48.0278 27.8874 47.9993 28.0015 47.9042L30.9859 45.509L34.8068 45.6896C34.9589 45.6991 35.1014 45.6231 35.187 45.4995L37.2875 42.2965L40.9848 41.289C41.1274 41.2509 41.2414 41.1369 41.289 40.9848L42.2965 37.2875L45.4995 35.187C45.6231 35.1014 45.6991 34.9589 45.6896 34.8068L45.509 30.9859L47.9042 28.0015C47.9993 27.8874 48.0278 27.7258 47.9707 27.5833ZM44.7392 30.5772C44.6726 30.6628 44.6441 30.7578 44.6441 30.8624L44.8247 34.6072L41.6977 36.6602C41.6121 36.7172 41.5456 36.8028 41.5171 36.9073L40.5286 40.5191L36.9168 41.5076C36.8123 41.5361 36.7267 41.6026 36.6697 41.6882L34.6167 44.8152L30.8719 44.6346C30.7673 44.6346 30.6628 44.6631 30.5867 44.7297L27.6593 47.0678L24.1521 45.7466C24.057 45.7086 23.943 45.7086 23.8479 45.7466L20.3407 47.0678L17.4133 44.7297C17.3277 44.6631 17.2327 44.6346 17.1281 44.6346L13.3833 44.8152L11.3303 41.6882C11.2733 41.6026 11.1877 41.5361 11.0832 41.5076L7.4714 40.5191L6.48292 36.9073C6.45441 36.8028 6.38787 36.7172 6.30233 36.6602L3.1753 34.6072L3.35589 30.8624C3.36539 30.7578 3.32738 30.6533 3.26084 30.5772L0.922698 27.6498L2.24385 24.1426C2.28186 24.0475 2.28186 23.9335 2.24385 23.8384L0.922698 20.3312L3.26084 17.4038C3.32738 17.3182 3.35589 17.2232 3.35589 17.1186L3.1753 13.3738L6.30233 11.3208C6.38787 11.2638 6.45441 11.1782 6.48292 11.0737L7.4714 7.4619L11.0832 6.47342C11.1877 6.4449 11.2733 6.37837 11.3303 6.29283L13.3833 3.1658L17.1281 3.34639C17.2327 3.35589 17.3372 3.31787 17.4133 3.25134L20.3407 0.913193L23.8479 2.23434C23.943 2.27236 24.057 2.27236 24.1521 2.23434L27.6593 0.913193L30.5867 3.25134C30.6723 3.31787 30.7673 3.34639 30.8719 3.34639L34.6167 3.1658L36.6697 6.29283C36.7267 6.37837 36.8123 6.4449 36.9168 6.47342L40.5286 7.4619L41.5171 11.0737C41.5456 11.1782 41.6121 11.2638 41.6977 11.3208L44.8247 13.3738L44.6441 17.1186C44.6346 17.2232 44.6726 17.3277 44.7392 17.4038L47.0773 20.3312L45.7562 23.8384C45.7181 23.9335 45.7181 24.0475 45.7562 24.1426L47.0773 27.6498L44.7392 30.5772Z" fill="#98368F"/>
<path d="M37.4967 10.4654C37.2971 10.2658 37.0975 10.0757 36.8979 9.88553C36.8218 9.8095 36.7173 9.77148 36.6127 9.77148C36.6032 9.77148 36.6032 9.77148 36.5937 9.77148C36.4797 9.78098 36.3751 9.8285 36.2991 9.91405C36.223 9.99959 36.185 10.1042 36.185 10.2182C36.1945 10.3323 36.2421 10.4369 36.3276 10.5129C36.5177 10.6935 36.7173 10.8741 36.8979 11.0642C37.088 11.2543 37.2686 11.4443 37.4492 11.6344C37.5347 11.72 37.6392 11.777 37.7628 11.777C37.8674 11.777 37.9719 11.739 38.0575 11.663C38.143 11.5869 38.1905 11.4824 38.2 11.3683C38.2095 11.2543 38.162 11.1402 38.086 11.0642C37.8864 10.8646 37.6868 10.665 37.4967 10.4654Z" fill="#98368F"/>
<path d="M34.3696 8.44094C34.4931 8.24134 34.4361 7.97521 34.2365 7.85165C31.176 5.90319 27.5927 4.86719 23.962 4.86719C23.3061 4.86719 22.6503 4.90521 21.9945 4.97174C17.6509 5.41846 13.5544 7.37642 10.4558 10.4749C7.05318 13.8776 5.0667 18.4113 4.86711 23.2207C4.67701 28.0015 6.25479 32.6493 9.32479 36.2991C9.41033 36.3941 9.52439 36.4512 9.65745 36.4512C9.73349 36.4512 9.83804 36.4322 9.93309 36.3466C10.0186 36.2706 10.0757 36.166 10.0852 36.052C10.0947 35.9379 10.0566 35.8239 9.99011 35.7383C7.06268 32.2501 5.54194 27.8209 5.73203 23.2492C5.92212 18.6585 7.81355 14.3338 11.0641 11.0737C14.0201 8.11778 17.936 6.25487 22.0895 5.81765C26.1765 5.38994 30.3301 6.36892 33.7803 8.5645C33.9799 8.69756 34.246 8.64054 34.3696 8.44094Z" fill="#98368F"/>
<path d="M24.7509 43.0951C29.5603 42.905 34.0845 40.9185 37.4967 37.5063C40.5952 34.4078 42.5437 30.3113 42.9999 25.9677C43.4466 21.6811 42.4201 17.3374 40.12 13.7257C40.0629 13.6306 39.9584 13.5641 39.8538 13.5356C39.7398 13.5071 39.6257 13.5356 39.5307 13.5926C39.4356 13.6496 39.3691 13.7542 39.3406 13.8587C39.3121 13.9728 39.3406 14.0868 39.3976 14.1819C41.5932 17.6321 42.5722 21.7856 42.1445 25.8726C41.7167 30.0262 39.8538 33.9421 36.8884 36.898C33.6378 40.1486 29.3132 42.0495 24.7129 42.2301C20.1507 42.4202 15.712 40.8995 12.2238 37.972C12.1478 37.9055 12.0432 37.8675 11.9482 37.8675C11.8246 37.8675 11.7011 37.915 11.6155 38.0196C11.5395 38.1051 11.511 38.2192 11.5205 38.3332C11.53 38.4473 11.587 38.5518 11.6725 38.6279C15.3128 41.6884 19.9891 43.2851 24.7509 43.0951Z" fill="#98368F"/>
</g>
<defs>
<clipPath id="clip0">
<rect width="48" height="48" fill="white"/>
</clipPath>
</defs>
</svg>
