<svg width="20" height="20" viewBox="0 0 20 20" fill="none" xmlns="http://www.w3.org/2000/svg">
<path d="M2.5 10C2.5 11.3783 3.62167 12.5 5 12.5C5.66167 12.5 6.26 12.2375 6.7075 11.8167L11.7 14.67C11.685 14.7783 11.6667 14.8867 11.6667 15C11.6667 16.3783 12.7883 17.5 14.1667 17.5C15.545 17.5 16.6667 16.3783 16.6667 15C16.6667 13.6217 15.545 12.5 14.1667 12.5C13.505 12.5 12.9067 12.7625 12.4592 13.1833L7.46667 10.3308C7.48167 10.2217 7.5 10.1133 7.5 10C7.5 9.88667 7.48167 9.77833 7.46667 9.66917L12.4592 6.81667C12.9067 7.2375 13.505 7.5 14.1667 7.5C15.545 7.5 16.6667 6.37833 16.6667 5C16.6667 3.62167 15.545 2.5 14.1667 2.5C12.7883 2.5 11.6667 3.62167 11.6667 5C11.6667 5.11333 11.685 5.22167 11.7 5.33083L6.7075 8.18333C6.24667 7.74557 5.63561 7.50102 5 7.5C3.62167 7.5 2.5 8.62167 2.5 10Z" fill="#404042" fill-opacity="0.7"/>
</svg>
