<svg width="16" height="16" viewBox="0 0 16 16" fill="none" xmlns="http://www.w3.org/2000/svg">
<path d="M10.165 10.74L11.285 9.62002C11.4358 9.47104 11.6267 9.36906 11.8344 9.32646C12.0421 9.28385 12.2577 9.30246 12.455 9.38002L13.82 9.92502C14.0194 10.006 14.1904 10.1441 14.3114 10.3221C14.4324 10.5 14.498 10.7098 14.5 10.925V13.425C14.4988 13.5714 14.4681 13.7161 14.4095 13.8502C14.351 13.9844 14.2659 14.1054 14.1594 14.2058C14.0529 14.3062 13.9272 14.3841 13.7898 14.4346C13.6524 14.4852 13.5062 14.5074 13.36 14.5C3.79499 13.905 1.86499 5.80502 1.49999 2.70502C1.48305 2.55279 1.49853 2.39869 1.54541 2.25288C1.5923 2.10706 1.66953 1.97282 1.77202 1.85899C1.87452 1.74516 1.99995 1.65432 2.14007 1.59245C2.28019 1.53058 2.43182 1.49908 2.58499 1.50002H4.99999C5.2155 1.50066 5.42588 1.56575 5.60409 1.68694C5.7823 1.80812 5.92017 1.97984 5.99999 2.18002L6.54499 3.54502C6.62512 3.74155 6.64556 3.95734 6.60377 4.16543C6.56197 4.37351 6.45979 4.56467 6.30999 4.71502L5.18999 5.83502C5.18999 5.83502 5.83499 10.2 10.165 10.74Z" fill="#98368F"/>
</svg>
