<svg width="30" height="30" viewBox="0 0 30 30" fill="none" xmlns="http://www.w3.org/2000/svg">
<g clip-path="url(#clip0)">
<path d="M28.1988 9.93882C27.1132 8.31783 25.579 7.0418 23.6386 6.1462C22.3587 5.55548 21.2145 5.35904 20.1088 5.33374C20.45 5.13184 20.7257 4.96663 20.9277 4.84305C21.4134 4.54593 21.5439 4.46608 21.5466 4.20336C21.5482 4.04802 21.4673 3.90219 21.3345 3.82147C19.3478 2.61307 17.5713 3.7843 16.1439 4.72546C15.9571 4.84863 15.7729 4.96992 15.5935 5.08235C15.6311 4.7473 15.6643 4.35471 15.6786 3.93377C15.7355 2.25677 15.4695 0.995067 14.8882 0.183834C14.75 -0.00908214 14.4836 -0.0576927 14.2861 0.0739903L12.8771 1.01332C12.684 1.14201 12.624 1.39857 12.7399 1.59959C13.1722 2.34929 14.1926 4.29254 14.4816 5.51896C14.0316 5.35869 13.4465 5.05704 12.8747 4.76227C11.0385 3.81559 8.75325 2.63732 7.21262 3.85205C7.09808 3.94241 7.03521 4.08495 7.04566 4.23049C7.06333 4.47706 7.19078 4.55509 7.66491 4.84546C7.88378 4.97949 8.18789 5.16143 8.56879 5.38622C8.59973 5.40448 8.63072 5.42274 8.66166 5.441C7.93303 5.5553 7.17476 5.771 6.36153 6.14638C4.4211 7.04198 2.88681 8.318 1.80135 9.939C0.606047 11.7237 0 13.8719 0 16.3236C0 19.6253 1.60438 23.0403 4.40178 25.6929C5.79992 27.0187 7.40137 28.0672 9.16168 28.8092C11.0362 29.5993 13.0005 30 15 30C16.9995 30 18.9638 29.5993 20.8383 28.8092C22.5986 28.0672 24.2001 27.0187 25.5982 25.6929C28.3956 23.0403 30 19.6253 30 16.3236C30 13.8719 29.394 11.7237 28.1988 9.93882ZM16.6286 5.46066C17.7634 4.71237 18.9309 3.94276 20.1741 4.26976C19.6346 4.5936 18.8655 5.04483 18.2729 5.38875C18.2582 5.39732 18.2443 5.40677 18.231 5.41669C18.0308 5.4346 17.8302 5.45391 17.6283 5.47346C17.2442 5.51062 16.8534 5.54796 16.4507 5.57773C16.5099 5.53892 16.5691 5.49988 16.6286 5.46066ZM17.7131 6.34998C17.7772 6.34381 17.8409 6.33765 17.9044 6.33154C18.4493 6.45495 18.8407 6.72096 19.0987 7.14442C19.5208 7.837 19.4982 8.79577 19.4133 9.44978C18.6284 8.74352 17.1851 7.47495 15.8863 6.49423C16.5271 6.46381 17.1275 6.40657 17.7131 6.34998ZM13.705 1.51974L14.3864 1.06552C14.6852 1.7001 14.8279 2.61865 14.8025 3.76053C14.4247 2.86376 13.9696 2.00074 13.705 1.51974ZM13.7088 6.47151C12.5207 7.41965 11.2862 8.64466 10.5766 9.3764C10.4988 8.68922 10.5129 7.78358 10.9001 7.14648C11.1581 6.7219 11.5499 6.45518 12.0956 6.3316C12.1592 6.33771 12.2228 6.34381 12.287 6.35004C12.7477 6.39448 13.2176 6.43933 13.7088 6.47151ZM8.39248 4.25644C9.48569 4.03563 11.0176 4.79661 12.3234 5.46871C12.253 5.4619 12.1829 5.4552 12.1128 5.44851C12.1125 5.44851 12.1122 5.44845 12.1118 5.44845C11.4778 5.38798 10.8527 5.3345 10.2181 5.3308C9.56008 4.94914 8.87225 4.54481 8.39248 4.25644ZM24.9923 25.0539C23.6713 26.3065 22.1586 27.297 20.4962 27.9977C18.7306 28.742 16.8814 29.1193 15 29.1193C13.1186 29.1193 11.2694 28.742 9.50372 27.9977C7.84139 27.297 6.32871 26.3066 5.00765 25.0539C2.38491 22.5668 0.880626 19.3848 0.880626 16.3236C0.880626 14.0495 1.43654 12.0662 2.53297 10.4288C3.52703 8.9443 4.93931 7.77248 6.73051 6.94575C7.96679 6.37516 9.05648 6.21072 10.1471 6.21072C10.269 6.21072 10.391 6.21342 10.5132 6.21718C10.3759 6.35755 10.2535 6.51454 10.1475 6.68908C9.24992 8.16607 9.8538 10.3327 9.87992 10.4243C9.92366 10.5774 10.0467 10.6949 10.2016 10.7317C10.2353 10.7397 10.2694 10.7436 10.3033 10.7436C10.4248 10.7436 10.5427 10.6932 10.6271 10.6016C10.652 10.5746 12.9357 8.10395 14.7695 6.76845C16.6796 8.11293 19.368 10.5991 19.3973 10.6262C19.4798 10.7027 19.5871 10.7436 19.6967 10.7436C19.7362 10.7436 19.7761 10.7383 19.8152 10.7273C19.9626 10.6861 20.078 10.5714 20.12 10.4242C20.1461 10.3327 20.75 8.16607 19.8525 6.68902C19.7463 6.5143 19.6239 6.3572 19.4864 6.21677C20.7014 6.17925 21.8948 6.31123 23.2694 6.94569C25.0606 7.77242 26.4729 8.94424 27.467 10.4287C28.5635 12.0662 29.1194 14.0495 29.1194 16.3236C29.1194 19.3848 27.6151 22.5668 24.9923 25.0539Z"  />
<path d="M25.861 10.0039C25.6965 9.8247 25.418 9.81284 25.2388 9.97729C25.0597 10.1417 25.0477 10.4202 25.2122 10.5994C26.558 12.0657 27.2404 13.991 27.2404 16.322C27.2404 16.7861 27.1969 17.2626 27.1111 17.7382C27.068 17.9775 27.2269 18.2066 27.4663 18.2497C27.4927 18.2545 27.519 18.2568 27.545 18.2568C27.7539 18.2568 27.9394 18.1075 27.9778 17.8946C28.0728 17.3675 28.121 16.8384 28.121 16.322C28.121 13.7635 27.3606 11.6378 25.861 10.0039Z"  />
<path d="M2.82046 17.2932C2.7799 16.9682 2.75929 16.6418 2.75929 16.3231C2.75929 16.08 2.56215 15.8828 2.31898 15.8828C2.0758 15.8828 1.87866 16.08 1.87866 16.3231C1.87866 16.6781 1.90156 17.0412 1.94659 17.4023C1.97442 17.6251 2.1641 17.7881 2.38297 17.7881C2.40117 17.7881 2.41954 17.787 2.43804 17.7847C2.67939 17.7546 2.85058 17.5345 2.82046 17.2932Z"  />
<path d="M24.0856 8.52416C23.6992 8.27723 23.284 8.05085 22.8513 7.85118C22.6304 7.74927 22.3689 7.84566 22.267 8.06647C22.165 8.28727 22.2614 8.54888 22.4822 8.6508C22.8787 8.83379 23.2586 9.04086 23.6114 9.2663C23.6848 9.31327 23.7669 9.33563 23.848 9.33563C23.9933 9.33563 24.1355 9.26383 24.2195 9.13238C24.3504 8.92737 24.2905 8.65508 24.0856 8.52416Z"  />
<path d="M3.24121 19.082C3.16189 18.8521 2.91121 18.7301 2.68136 18.8093C2.45146 18.8886 2.32941 19.1393 2.40872 19.3692C3.02745 21.1623 4.16357 22.8773 5.69422 24.3288C5.77941 24.4095 5.88837 24.4496 5.9971 24.4496C6.11369 24.4496 6.23011 24.4036 6.3167 24.3123C6.48402 24.1358 6.47663 23.8571 6.30015 23.6898C4.87171 22.3353 3.81396 20.7419 3.24121 19.082Z"  />
</g>
<defs>
<clipPath id="clip0">
<rect width="30" height="30" fill="white"/>
</clipPath>
</defs>
</svg>
